<?xml version="1.0" encoding="UTF-8" standalone="no"?>
<!-- Created with Inkscape (http://www.inkscape.org/) -->

<svg
   width="128"
   height="128"
   viewBox="0 0 33.866666 33.866666"
   version="1.1"
   id="svg11131"
   inkscape:version="1.2.2 (b0a84865, 2022-12-01)"
   sodipodi:docname="connect-peers.svg"
   xmlns:inkscape="http://www.inkscape.org/namespaces/inkscape"
   xmlns:sodipodi="http://sodipodi.sourceforge.net/DTD/sodipodi-0.dtd"
   xmlns="http://www.w3.org/2000/svg"
   xmlns:svg="http://www.w3.org/2000/svg">
  <sodipodi:namedview
     id="namedview11133"
     pagecolor="#7e7e7e"
     bordercolor="#000000"
     borderopacity="0.25"
     inkscape:showpageshadow="2"
     inkscape:pageopacity="0"
     inkscape:pagecheckerboard="0"
     inkscape:deskcolor="#d1d1d1"
     inkscape:document-units="mm"
     showgrid="false"
     inkscape:zoom="5.6568543"
     inkscape:cx="69.738406"
     inkscape:cy="85.206367"
     inkscape:window-width="2560"
     inkscape:window-height="1338"
     inkscape:window-x="0"
     inkscape:window-y="25"
     inkscape:window-maximized="1"
     inkscape:current-layer="layer1" />
  <defs
     id="defs11128" />
  <g
     inkscape:label="Layer 1"
     inkscape:groupmode="layer"
     id="layer1">
    <g
       id="g11758"
       style="fill:#b3b3b3"
       transform="translate(45.867212,-0.8624604)">
      <path
         style="fill:#b3b3b3;stroke-width:0.607999;stroke-linejoin:round"
         id="path11643"
         d="m 17.563601,12.385938 c -0.111942,0.07403 -0.227339,0.143091 -0.335828,0.2221 -0.194118,0.141371 -0.381425,0.291869 -0.571476,0.438663 -0.316464,0.244437 -0.639916,0.480187 -0.948063,0.73503 -0.913638,0.755593 -1.650486,1.422476 -2.45769,2.302027 -0.38525,0.419779 -0.733825,0.871797 -1.100738,1.307696 -0.602734,0.920385 -1.069239,1.416938 -1.278338,2.509643 -0.06636,0.346769 -0.078,0.71591 0.0046,1.059173 0.07264,0.301888 0.16913,0.678582 0.446927,0.817295 1.323364,0.660801 2.21219,-0.03042 3.409406,-0.506352 0.681404,-0.437685 1.395727,-0.827929 2.044213,-1.313054 1.360014,-1.01741 2.60442,-2.223316 3.6401,-3.57134 0.680548,-0.88579 1.442421,-2.103366 1.701347,-3.23829 0.07688,-0.336974 0.0087,-0.691211 0.01298,-1.036817 -0.164142,-0.227333 -0.255243,-0.532441 -0.492425,-0.681999 -0.648,-0.408606 -1.679557,-0.128666 -2.289433,0.04344 -0.995714,0.280983 -2.083499,0.805532 -2.969361,1.322411 -0.455053,0.265513 -0.879509,0.580299 -1.319264,0.870449 -0.317441,0.268538 -0.634883,0.537075 -0.952324,0.805613 -0.05535,0.05566 0.731785,0.838476 0.787138,0.782817 v 0 c 0.334026,-0.215571 0.668052,-0.431143 1.002077,-0.646715 1.156956,-0.705201 1.473832,-0.917832 2.681618,-1.572703 0.412931,-0.223894 0.833183,-0.434049 1.251893,-0.646941 0.08075,-0.04106 0.953733,-0.494428 1.145813,-0.508952 0.08243,-0.0062 0.139253,0.08913 0.208879,0.133688 -0.06727,0.228452 -0.09654,0.471741 -0.201819,0.685357 -0.444928,0.902753 -1.307077,2.00165 -1.925292,2.72318 -0.511808,0.597342 -1.043998,1.178338 -1.602072,1.732701 -1.388333,1.379103 -2.032139,1.833654 -3.524808,3.030173 -0.44301,0.273904 -0.89584,0.532525 -1.329028,0.82171 -0.17336,0.115731 -0.279444,0.394998 -0.48785,0.391191 -0.163113,-0.003 -0.246517,-0.244415 -0.274614,-0.405118 -0.04251,-0.243127 7.68e-4,-0.501247 0.07499,-0.736639 0.284802,-0.903266 0.754017,-1.36315 1.328115,-2.121484 0.363688,-0.41395 0.723085,-0.83171 1.091064,-1.24185 0.895648,-0.998269 1.331716,-1.439946 2.217737,-2.414366 0.263183,-0.28944 0.52243,-0.582446 0.781509,-0.875566 0.15342,-0.173578 0.307199,-0.346916 0.455963,-0.524502 0.08262,-0.09863 0.158653,-0.202593 0.237979,-0.303889 0.02742,-0.0328 -0.436499,-0.42058 -0.463919,-0.387776 z" />
      <path
         style="fill:#b3b3b3;stroke-width:0.607999;stroke-linejoin:round"
         id="path11645"
         d="m 14.797358,14.53044 c -0.382856,-0.971144 -1.037253,-1.811755 -1.715125,-2.593905 -0.33207,-0.383152 -0.67199,-0.760198 -1.029362,-1.119866 -0.352028,-0.35429 -0.73147,-0.680243 -1.097205,-1.0203646 C 10.634067,9.5394213 10.312468,9.2825384 9.9908697,9.0256555 9.9396684,8.9664711 9.1026749,9.6905661 9.1538763,9.7497505 v 0 c 0.2839481,0.2760945 0.5678963,0.5521895 0.8518447,0.8282845 0.355806,0.33352 0.709326,0.669496 1.067419,1.00056 0.364916,0.337373 0.739494,0.664272 1.101558,1.004703 0.294082,0.276511 0.582456,0.559152 0.866603,0.845863 0.423812,0.427635 0.837476,0.869753 1.193365,1.356596 0.01806,0.03979 0.580745,-0.215529 0.562692,-0.255317 z" />
      <path
         style="fill:#b3b3b3;stroke-width:0.607999;stroke-linejoin:round"
         id="path11647"
         d="m 20.196391,11.416562 c 0.224135,-0.698639 0.449023,-1.39839 0.631709,-2.1093428 0.205751,-0.8007127 0.42119,-1.8127942 0.559692,-2.6236667 0.07306,-0.4277519 0.125593,-0.8587579 0.18839,-1.288137 0.12899,-1.3580975 0.100759,-0.7315999 0.112286,-1.8780466 0.0057,-0.06358 -0.89342,-0.1447109 -0.899157,-0.081131 v 0 c -0.229684,1.0929792 -0.110818,0.4914839 -0.347156,1.8063268 -0.203019,1.1550772 -0.255199,1.4344454 -0.448912,2.609986 -0.169688,1.0297472 -0.341127,2.0627154 -0.405399,3.1058953 -0.0083,0.13528 -0.0038,0.271047 -0.0057,0.40657 -0.0036,0.04343 0.610591,0.09498 0.614235,0.05155 z" />
      <path
         style="fill:#b3b3b3;stroke-width:0.607999;stroke-linejoin:round"
         id="path11649"
         d="m 22.144515,13.447811 c 0.117875,5.29e-4 0.235762,0.0034 0.353625,0.0016 0.219128,-0.0033 0.438115,-0.01355 0.657244,-0.01683 1.011022,-0.01514 1.757889,-6.61e-4 2.803909,-0.05011 0.654911,-0.03096 1.309604,-0.07183 1.962527,-0.131494 0.611518,-0.05588 1.219737,-0.143352 1.829607,-0.215028 0.476197,-0.08238 0.952394,-0.164751 1.428591,-0.247126 0.08132,-0.02927 -0.332565,-1.179309 -0.413885,-1.150043 v 0 c -0.493135,0.0267 -0.986271,0.05341 -1.479407,0.08011 -0.613624,0.05678 -1.228669,0.09987 -1.840873,0.17033 -0.638204,0.07345 -1.274262,0.165215 -1.909452,0.261297 -1.208179,0.182756 -2.415787,0.399102 -3.596092,0.718972 -0.04089,0.01444 0.163311,0.592782 0.204206,0.578342 z" />
      <path
         style="fill:#b3b3b3;stroke-width:0.607999;stroke-linejoin:round"
         id="path11651"
         d="m 17.890743,18.913665 c 0.07903,0.172383 0.145765,0.350957 0.237101,0.51715 0.259181,0.471598 0.64576,1.01986 0.968677,1.440803 0.39545,0.515494 0.780077,0.959948 1.227764,1.429001 0.182709,0.191429 0.375762,0.372711 0.563643,0.559067 0.03819,0.05176 0.77016,-0.488263 0.731974,-0.540022 v 0 c -0.570934,-0.64757 -1.138838,-1.29703 -1.692204,-1.959785 -0.291355,-0.348949 -0.783448,-0.961286 -1.097878,-1.311108 -0.115692,-0.128713 -0.241606,-0.247858 -0.362409,-0.371787 -0.01673,-0.04078 -0.593404,0.195905 -0.576668,0.236681 z" />
      <path
         style="fill:#b3b3b3;stroke-width:0.607999;stroke-linejoin:round"
         id="path11653"
         d="m 10.95098,18.885372 c -0.194295,-0.01234 -0.388213,-0.0347 -0.582885,-0.03701 -1.522031,-0.01803 -3.0210538,0.133228 -4.5202772,0.391798 -0.4744442,0.08183 -0.9434832,0.192384 -1.415225,0.288575 -0.079578,0.03261 0.3815572,1.158014 0.4611354,1.125406 v 0 c 0.48196,-0.06139 0.9651842,-0.11357 1.4458802,-0.184184 0.5530146,-0.08124 1.1051799,-0.169363 1.6547568,-0.271294 1.0611525,-0.196813 2.1103588,-0.447862 3.1550618,-0.716791 0.04218,-0.01403 -0.156268,-0.610536 -0.198447,-0.596504 z" />
      <path
         style="fill:#b3b3b3;stroke-width:0.607999;stroke-linejoin:round"
         id="path11655"
         d="m 11.894754,21.902467 c -0.160204,0.719987 -0.351669,1.552221 -0.465889,2.254542 -0.09844,0.60531 -0.176179,1.21404 -0.243801,1.823563 -0.109911,0.990701 -0.20054,2.223252 -0.221981,3.235111 -0.0069,0.327827 0.0099,0.655722 0.01482,0.983583 -0.0058,0.0706 0.992635,0.152114 0.9984,0.08152 v 0 c 0.0682,-0.322337 0.14853,-0.642343 0.204586,-0.96701 0.170041,-0.98484 0.320213,-2.247871 0.39453,-3.225946 0.0977,-1.285786 0.12562,-2.109371 0.05586,-3.369194 -0.01447,-0.261344 -0.06032,-0.520002 -0.09048,-0.780003 0.0026,-0.04568 -0.643484,-0.08184 -0.646042,-0.03616 z" />
      <path
         style="fill:#b3b3b3;stroke-width:0.607999;stroke-linejoin:round"
         id="path11661"
         d="m 8.5693696,6.7443434 c 0.053683,0.00606 0.1073663,0.01212 0.1610495,0.018179 0.015457,0.00549 0.030204,0.013695 0.046371,0.016468 0.1246238,0.021365 0.2848187,0.018415 0.3977968,0.091667 0.1365578,0.088541 0.2507644,0.3018854 0.3305162,0.424311 0.046325,0.1089392 0.1104265,0.2119317 0.1389745,0.3268175 0.036089,0.1452322 0.044315,0.2964096 0.053014,0.4458055 0.026244,0.4507156 5.557e-4,0.9310875 -0.2017154,1.3446313 -0.047337,0.096775 -0.12165,0.1778364 -0.1824748,0.2667541 C 8.9436836,9.859076 8.630528,9.8073701 8.2461559,9.7347623 7.8946546,9.6683636 7.6643343,9.6825235 7.4077903,9.4122265 7.3188911,9.3185614 7.2793481,9.1881559 7.2151268,9.0761208 7.1962726,8.9281002 7.1548807,8.7812302 7.1585631,8.6320592 7.1631801,8.4449908 7.1968788,8.2587284 7.2398016,8.0765924 7.3577767,7.5759857 7.6002826,7.0218005 8.0258938,6.702635 8.1218748,6.6306588 8.2427674,6.5999827 8.3512042,6.5486565 c 0.1176325,0.011541 0.2377896,0.00778 0.3528973,0.034626 0.057696,0.013457 0.1036066,0.057561 0.1565275,0.084193 0.092066,0.046333 0.1855608,0.089771 0.2783412,0.134657 0.040258,0.03264 0.5018505,-0.5367046 0.4615918,-0.5693442 v 0 C 9.4661269,6.150036 9.3466376,6.0355807 9.1972565,5.9845296 8.560523,5.7669257 8.4875694,5.8459377 7.883636,5.9402821 7.7165376,6.0327121 7.5328983,6.1001086 7.3823414,6.2175725 6.6466743,6.7915376 6.2812752,7.8442443 6.3541576,8.7560191 c 0.01833,0.2293004 0.099457,0.4491847 0.1491848,0.6737773 0.1189312,0.1873706 0.2038164,0.4013312 0.3567938,0.5621118 0.3136397,0.3296388 0.7012035,0.4855338 1.1442104,0.5343598 0.4902229,0.05403 1.0322478,0.05061 1.493761,-0.161502 0.1720512,-0.07907 0.308329,-0.219889 0.4624938,-0.329833 C 10.051579,9.901117 10.160554,9.7779069 10.233533,9.6334854 10.580887,8.9460878 10.583731,8.0826008 10.341564,7.363139 10.291074,7.2131395 10.20725,7.0765108 10.140093,6.9331969 9.9049908,6.6194643 9.8611956,6.4949826 9.5176987,6.2924605 9.2075631,6.1096074 8.7243107,6.1277838 8.3846687,6.1790815 c -0.03997,0.01306 0.1447308,0.578323 0.1847009,0.5652619 z" />
      <path
         style="fill:#b3b3b3;stroke-width:0.607999;stroke-linejoin:round"
         id="path11673"
         d="m 20.698064,3.4000993 c -0.289698,-0.034443 -0.0053,-0.0031 -0.332708,-0.030652 -0.05734,-0.00483 -0.121064,0.010149 -0.171777,-0.017037 -0.02699,-0.01447 -0.01609,-0.059114 -0.02496,-0.088431 -0.12365,-0.408726 -0.06231,-0.1384893 -0.139127,-0.6816742 -0.02123,-0.4404046 -0.0495,-0.9870645 0.201091,-1.3804009 0.05741,-0.09011 0.129076,-0.1902811 0.231053,-0.22215905 0.219126,-0.0684983 0.506707,0.078984 0.697725,0.15366795 0.184553,0.079212 0.385491,0.1278466 0.55366,0.2376362 0.341053,0.222657 0.632425,0.589336 0.795998,0.959533 0.108037,0.2445092 0.207997,0.6464971 0.07275,0.9169267 -0.05069,0.1013549 -0.168644,0.1514181 -0.252966,0.2271273 -0.144234,0.03358 -0.285079,0.088969 -0.432701,0.100739 -0.42403,0.033809 -0.645303,-0.016843 -1.034828,-0.108377 -0.639638,-0.1503087 -0.445053,-0.092767 -0.977848,-0.3111852 -0.04385,-0.033667 -0.519966,0.586395 -0.476121,0.6200619 v 0 c 0.159068,0.097922 0.307197,0.2163791 0.477205,0.2937663 0.550166,0.2504342 1.064311,0.3310208 1.679503,0.3172161 0.26587,-0.00597 0.535336,-0.044445 0.787158,-0.1299318 0.229656,-0.077962 0.424061,-0.2354818 0.636092,-0.3532225 0.130174,-0.1854991 0.306651,-0.3459723 0.390523,-0.5564973 0.08371,-0.2101141 0.110293,-0.4454435 0.09863,-0.671317 C 23.432886,1.8329343 22.895383,1.080572 22.194624,0.64454203 21.971829,0.50591367 21.709582,0.44415368 21.467061,0.34395952 20.769895,0.30022694 20.44481,0.14700088 19.85087,0.53782822 19.696638,0.6393164 19.584263,0.79907436 19.489274,0.9573919 c -0.209568,0.3492896 -0.280422,0.757364 -0.284189,1.1575799 -0.0019,0.2034995 0.03839,0.4052028 0.05758,0.6078042 0.141839,0.5046123 0.208814,0.9494644 0.707618,1.2336303 0.06349,0.036171 0.144175,0.025337 0.217044,0.030781 0.159857,0.011943 0.214142,-3.439e-4 0.364408,-0.017169 0.0403,0.010348 0.186629,-0.5595705 0.146329,-0.5699175 z" />
      <path
         style="fill:#b3b3b3;stroke-width:0.607999;stroke-linejoin:round"
         id="path11703"
         d="m 33.504645,9.8263701 c -0.112906,-0.00337 -0.225785,-0.012356 -0.33872,-0.010118 -0.572561,0.011348 -1.22021,0.1667259 -1.742866,0.3943469 -0.145423,0.06333 -0.281913,0.145457 -0.42287,0.218186 -0.118208,0.09328 -0.247835,0.17368 -0.354624,0.279843 -0.26099,0.259457 -0.43081,0.608722 -0.393933,0.982983 0.02753,0.279417 0.109982,0.353939 0.252352,0.587389 0.08134,0.08605 0.155382,0.179628 0.244004,0.258153 0.304472,0.269779 0.698542,0.474267 1.097828,0.557795 0.07841,0.0164 0.158602,0.02268 0.237903,0.03403 0.1495,-0.01192 0.300524,-0.01136 0.4485,-0.03576 0.103743,-0.01711 0.203319,-0.05429 0.302869,-0.08814 0.336346,-0.114356 0.688731,-0.265018 0.941927,-0.524483 0.08582,-0.08795 0.148376,-0.195915 0.222565,-0.293872 0.04026,-0.102589 0.09448,-0.200744 0.120771,-0.307766 0.04773,-0.19426 0.03643,-0.376545 -0.01931,-0.566203 -0.06908,-0.234992 -0.220552,-0.416784 -0.370242,-0.603407 -0.254196,-0.266747 -0.538205,-0.516033 -0.87103,-0.68055 -0.06114,-0.030222 -0.125433,-0.053594 -0.18815,-0.08039 -0.187495,-0.055926 -0.3917,-0.1068139 -0.5881,-0.045538 -0.128691,0.040151 -0.185145,0.185958 -0.205431,0.300951 -0.0072,0.04061 0.01087,0.08176 0.01632,0.122633 0.0098,0.03896 0.560827,-0.100246 0.550984,-0.139206 v 0 c -2.64e-4,0.02168 0.0057,0.04449 -0.0011,0.06504 -0.01987,0.05914 -0.06469,0.172496 -0.143219,0.193474 -0.04664,0.01246 -0.09662,-0.0012 -0.14483,0.0013 -0.05681,0.003 0.325808,0.0014 0.167447,0.03297 0.124314,0.04863 0.169574,0.06123 0.28839,0.129834 0.215125,0.124206 0.402611,0.291779 0.58198,0.461739 0.09637,0.104506 0.217655,0.213747 0.273955,0.348611 0.05985,0.143384 0.01839,0.273888 -0.05249,0.404656 -0.04454,0.05497 -0.08092,0.117713 -0.133623,0.164911 -0.183663,0.164474 -0.546851,0.328515 -0.77551,0.419767 -0.233119,0.09303 -0.23255,-0.0048 -0.218434,0.112549 -0.04539,4.5e-4 -0.09142,0.0089 -0.136187,0.0013 -0.108394,-0.01825 -0.284781,-0.105064 -0.37321,-0.148676 -0.245483,-0.121066 -0.487143,-0.253959 -0.69795,-0.430374 -0.07706,-0.07713 -0.145484,-0.119271 -0.169048,-0.230527 -0.06686,-0.315667 0.324329,-0.537772 0.532821,-0.672005 0.125817,-0.05519 0.249502,-0.115525 0.377457,-0.165559 0.40571,-0.158641 0.82641,-0.28105 1.24872,-0.385961 0.284025,-0.07056 0.226983,0.01736 0.286292,-0.08814 0.04072,0.01046 0.188582,-0.5654205 0.14786,-0.5758758 z" />
      <path
         style="fill:#b3b3b3;stroke-width:0.607999;stroke-linejoin:round"
         id="path11705"
         d="m 22.591584,21.967857 c -0.785705,0.299278 -1.590257,0.747331 -2.155458,1.38118 -0.126062,0.141373 -0.225577,0.304346 -0.338365,0.45652 -0.07679,0.189935 -0.179588,0.371329 -0.230376,0.569806 -0.117725,0.460063 -0.08667,1.057863 0.266921,1.418889 0.103841,0.106024 0.231766,0.199909 0.374387,0.240939 0.218296,0.0628 0.452417,0.04133 0.678625,0.062 0.186631,-0.04252 0.37572,-0.07541 0.559892,-0.127563 0.90661,-0.256715 1.91922,-0.684223 2.471681,-1.492163 0.131852,-0.192827 0.202908,-0.420829 0.304362,-0.631243 0.02573,-0.226915 0.08679,-0.452578 0.07719,-0.680745 -0.02269,-0.539075 -0.299405,-1.101598 -0.814781,-1.325564 -0.469048,-0.203833 -0.896612,-0.100687 -1.394147,-0.07131 -0.514153,0.133771 -0.704901,0.152616 -1.169235,0.383961 -0.195319,0.09731 -0.456783,0.256589 -0.580541,0.456284 -0.04575,0.07382 -0.05537,0.164627 -0.08305,0.24694 -0.01199,0.04122 0.570877,0.210752 0.582865,0.169537 v 0 c -0.02163,0.09203 -0.01222,0.018 0.154963,-0.05418 0.44571,-0.192425 0.917018,-0.317176 1.386783,-0.434296 0.220682,-0.07429 0.638849,-0.252833 0.856339,-0.0656 0.07555,0.06504 0.126009,0.158115 0.163259,0.250588 0.136808,0.339629 0.08373,0.451119 0.05611,0.814021 -0.07359,0.14357 -0.123433,0.302047 -0.220766,0.430709 -0.249005,0.329151 -0.612918,0.556437 -0.964204,0.754826 -0.200789,0.113397 -0.410322,0.210805 -0.619278,0.308338 -0.537402,0.250841 -0.469781,0.214058 -0.962397,0.366536 -0.02642,0.02667 -0.04302,0.07021 -0.07925,0.08002 -0.274203,0.07421 -0.33479,-0.303656 -0.336756,-0.475193 -0.0015,-0.128133 0.01308,-0.257496 0.04365,-0.381939 0.03357,-0.13667 0.09822,-0.263768 0.147338,-0.395651 0.09864,-0.117835 0.188518,-0.243586 0.295905,-0.353504 0.290534,-0.297383 0.516439,-0.447227 0.857808,-0.687153 0.153249,-0.107708 0.309074,-0.211702 0.463611,-0.317553 0.123117,-0.08911 0.245277,-0.179557 0.369349,-0.267331 0.07041,-0.04981 0.142685,-0.09691 0.214028,-0.145373 0.03427,-0.02662 -0.342173,-0.511344 -0.376448,-0.484725 z" />
      <path
         style="fill:#b3b3b3;stroke-width:0.607999;stroke-linejoin:round"
         id="path11707"
         d="m 9.9884591,29.866148 c -0.3609557,0.152297 -0.7006947,0.384582 -0.9494702,0.690975 -0.060498,0.07451 -0.1090293,0.157985 -0.163544,0.236977 -0.038959,0.09168 -0.08913,0.179363 -0.1168763,0.275034 -0.1300591,0.44845 -0.05244,0.961692 0.2098027,1.348729 0.079885,0.117899 0.1878537,0.214099 0.2817802,0.321146 0.1225532,0.08358 0.2361973,0.182015 0.3676594,0.250733 0.6024491,0.31491 1.3925781,0.310494 2.0484051,0.227057 0.172051,-0.02188 0.34177,-0.05929 0.512654,-0.08894 0.476731,-0.122441 0.943508,-0.300627 1.286053,-0.671578 0.196355,-0.212638 0.320598,-0.466921 0.418594,-0.735402 0.04509,-0.123539 0.07244,-0.252852 0.108653,-0.37928 0.06156,-0.348149 0.151554,-0.771919 -0.0091,-1.110694 -0.106003,-0.223523 -0.169003,-0.232193 -0.365718,-0.381889 -0.141053,-0.04901 -0.27775,-0.113057 -0.423159,-0.147027 -0.328253,-0.07669 -0.853869,-0.107598 -1.179731,-0.111725 -0.476313,-0.006 -0.941662,0.0045 -1.413477,0.0613 -0.134152,0.01614 -0.266438,0.04518 -0.399658,0.06777 -0.07684,0.02742 -0.158726,0.04351 -0.2305144,0.08228 -0.2357414,0.127291 -0.1579719,0.351668 -0.030694,0.609795 0.029209,0.05924 0.1246874,0.045 0.1894064,0.05819 0.147023,0.02994 0.36793,0.01484 0.502011,0.01286 0.03679,-0.0029 0.07359,-0.0057 0.110386,-0.0086 0.04147,-0.01101 -0.114243,-0.597474 -0.155713,-0.586462 v 0 c -0.03949,-0.0021 -0.07897,-0.0043 -0.118461,-0.0064 0.0937,0.0024 -0.203606,-0.0052 -0.214089,0.03547 -0.03789,0.146997 -0.02955,0.302199 -0.04033,0.453618 -9.52e-4,0.01349 -0.008,0.03721 0.0052,0.04026 0.06936,0.01603 0.142213,0.0069 0.21332,0.01027 0.429573,0.0047 0.482469,0.0086 0.953251,-0.003 0.342135,-0.0084 0.683952,-0.02711 1.026042,-0.03722 0.16765,-0.0049 0.335428,-0.0056 0.503028,-0.01201 0.10115,-0.0039 0.202053,-0.01267 0.303079,-0.01902 0.0093,7.94e-4 0.131661,-7.1e-5 0.153008,0.03302 0.04206,0.0652 0.03293,0.210924 0.02746,0.2691 -0.01603,0.170291 -0.06571,0.360768 -0.102815,0.52492 -0.07661,0.272114 -0.137191,0.574173 -0.355903,0.776007 -0.289007,0.266703 -0.694336,0.354304 -1.059004,0.455613 -0.608247,0.10232 -0.302246,0.06249 -0.904191,0.118517 -0.07025,0.0065 -0.140199,0.02101 -0.210742,0.01974 -0.210773,-0.0038 -0.4749,-0.03435 -0.676353,-0.106365 -0.093792,-0.03353 -0.1782977,-0.08885 -0.2674464,-0.133278 -0.070815,-0.06232 -0.149444,-0.116756 -0.2124453,-0.186968 -0.1666711,-0.185748 -0.2415151,-0.403172 -0.2406676,-0.649605 2.084e-4,-0.06066 0.00214,-0.122373 0.016936,-0.181203 0.01465,-0.05826 0.046903,-0.110611 0.070354,-0.165915 0.039849,-0.05487 0.075773,-0.112818 0.1195482,-0.164608 0.2141051,-0.253312 0.4987241,-0.429421 0.7656221,-0.620037 0.03338,-0.0249 -0.318713,-0.497018 -0.3520966,-0.472123 z" />
      <path
         style="fill:#b3b3b3;stroke-width:0.392137;stroke-linejoin:round"
         id="path11743"
         d="m 2.8262554,18.552673 c -0.122263,0.118438 -0.2638924,0.219711 -0.366789,0.355314 -0.3041721,0.400853 -0.5339241,0.899383 -0.5545911,1.411873 -0.021802,0.540649 0.1617263,1.172799 0.529207,1.584755 0.1580242,0.177149 0.3921471,0.267647 0.5882207,0.40147 0.2780818,7.74e-4 0.5725236,0.09639 0.8342455,0.0024 0.248362,-0.08918 0.4422013,-0.305213 0.5993703,-0.517191 C 4.7404101,21.407579 4.9381314,20.706775 4.885798,20.228968 4.8092695,19.530287 4.5627671,19.391229 4.138502,18.904382 3.6893943,18.656487 3.5293807,18.485794 3.0087373,18.490113 c -0.1963943,0.0016 -0.3865824,0.06962 -0.5798736,0.104436 -0.033928,0.01548 0.1849843,0.495298 0.2189126,0.479819 v 0 c 0.049198,-0.01696 0.095553,-0.05086 0.1475939,-0.05089 0.3995075,-2.73e-4 0.4495365,0.08086 0.8175731,0.260714 0.1249663,0.125196 0.2778623,0.227688 0.3748992,0.375588 0.2633321,0.401361 0.2558175,0.693417 0.1625922,1.158549 -0.078383,0.39108 -0.1917019,0.66343 -0.4884087,0.922361 C 3.600204,21.79464 3.5126381,21.80862 3.4379443,21.842581 3.3084202,21.767222 3.151438,21.726227 3.049372,21.616512 2.9124979,21.469381 2.815221,21.284614 2.7440534,21.096685 2.6645259,20.886681 2.609306,20.662402 2.6030502,20.437931 2.587326,19.873715 2.8393706,19.369534 3.0856656,18.883868 3.1090849,18.865525 2.8496744,18.534329 2.8262554,18.552673 Z" />
    </g>
    <path
       style="fill:#ffffff;stroke-width:0.574229;stroke-linejoin:round"
       id="path11645-4"
       d="M 14.571758,14.301622 C 14.217215,13.369153 13.661755,12.648632 13.032725,11.897105 12.724581,11.528954 12.409131,11.166653 12.077435,10.821003 11.750697,10.48052 11.398441,10.167191 11.058944,9.8402866 L 10.16319,9.0993887 C 10.115678,9.0425212 9.3366637,9.7361865 9.3841759,9.7930533 v 0 l 0.7906821,0.7960437 c 0.330276,0.320557 0.658426,0.643466 0.99083,0.961669 0.33874,0.324266 0.686474,0.638498 1.022558,0.965695 0.272979,0.265761 0.540646,0.537398 0.804377,0.812933 0.393362,0.410967 0.777269,0.835818 1.107412,1.303506 0.01674,0.03821 0.488448,-0.29307 0.471723,-0.331278 z"
       sodipodi:nodetypes="cssccsccssscc" />
    <path
       style="fill:#ffffff;stroke-width:0.499672;stroke-linejoin:round"
       id="path11647-3"
       d="m 17.772422,13.39179 c 0.273401,-0.445135 0.547631,-0.890935 0.780712,-1.348779 0.262509,-0.515647 0.549945,-1.172195 0.746328,-1.701871 0.103593,-0.279416 0.187012,-0.5632156 0.280519,-0.8448231 0.226524,-0.8981662 0.15312,-0.4804867 0.247542,-1.2491109 0.01027,-0.042085 -0.877806,-0.192898 -0.888111,-0.1508179 v 0 c -0.307453,0.7093462 -0.145745,0.318167 -0.475869,1.1757856 -0.285436,0.7539033 -0.357532,0.9359133 -0.635196,1.7045543 -0.243227,0.673314 -0.488428,1.348602 -0.627818,2.042229 -0.01804,0.08995 -0.02339,0.181605 -0.03509,0.272409 -0.0067,0.02877 0.600203,0.129199 0.606968,0.100429 z" />
    <path
       style="fill:#ffffff;stroke-width:0.402146;stroke-linejoin:round"
       id="path11649-6"
       d="m 19.657325,16.741835 c 0.07108,-0.01251 0.142416,-0.02338 0.213255,-0.03753 0.131711,-0.0263 0.262629,-0.05749 0.394342,-0.08377 0.6077,-0.121262 1.059227,-0.192683 1.68453,-0.34205 0.391503,-0.09352 0.781866,-0.194024 1.169256,-0.307634 0.362822,-0.106405 0.720448,-0.234804 1.080675,-0.352206 0.278587,-0.11036 0.557177,-0.220714 0.835765,-0.33107 0.04604,-0.0296 -0.320156,-0.798089 -0.366187,-0.768488 v 0 c -0.29445,0.07281 -0.588897,0.145635 -0.883348,0.21845 -0.364001,0.107273 -0.730247,0.205014 -1.092002,0.32181 -0.377119,0.121756 -0.751087,0.256238 -1.124091,0.393677 -0.709484,0.261423 -1.415212,0.54655 -2.093975,0.901943 -0.02318,0.01469 0.158606,0.401581 0.181782,0.386893 z" />
    <path
       style="fill:#ffffff;stroke-width:0.702241;stroke-linejoin:round"
       id="path11651-3"
       d="m 18.333054,19.680262 c 0.115678,0.186942 0.21831,0.382873 0.347057,0.560824 0.365336,0.504958 0.887013,1.07917 1.317231,1.516109 0.526852,0.535081 1.030755,0.989848 1.610046,1.463499 0.236417,0.193305 0.483076,0.373349 0.724615,0.560027 0.05117,0.05397 0.802529,-0.679106 0.751359,-0.733062 v 0 c -0.746165,-0.661012 -1.489167,-1.324662 -2.217631,-2.005833 -0.383545,-0.358645 -1.03479,-0.990885 -1.444703,-1.347063 -0.150823,-0.131055 -0.311838,-0.249532 -0.467757,-0.374295 -0.02512,-0.04452 -0.645355,0.31528 -0.620217,0.359794 z" />
    <path
       style="fill:#ffffff;stroke-width:0.554646;stroke-linejoin:round"
       id="path11653-4"
       d="m 12.956608,17.679651 c -0.161469,-0.01348 -0.322261,-0.03684 -0.484423,-0.0403 -1.267883,-0.02678 -2.5229603,0.115561 -3.7822413,0.365019 -0.3985122,0.07895 -0.7936002,0.186598 -1.1904007,0.279896 -0.067553,0.0321 0.2744435,1.158151 0.3419962,1.12606 v 0 c 0.4040073,-0.0585 0.8087218,-0.107799 1.2120227,-0.175514 0.4639761,-0.0779 0.9275028,-0.162684 1.3893921,-0.261263 0.891841,-0.190339 1.775765,-0.434888 2.656608,-0.697309 0.03568,-0.01377 -0.107272,-0.61035 -0.142954,-0.596586 z" />
    <path
       style="fill:#ffffff;stroke-width:0.529371;stroke-linejoin:round"
       id="path11655-7"
       d="m 14.495206,20.72348 c -0.21776,0.525502 -0.475718,1.132257 -0.646324,1.649369 -0.147037,0.445686 -0.27377,0.896167 -0.390509,1.34833 -0.189745,0.734931 -0.379961,1.654216 -0.483463,2.414573 -0.03349,0.24635 -0.04342,0.495289 -0.06515,0.742931 -0.0115,0.05259 0.974567,0.221003 0.986032,0.168413 v 0 c 0.09399,-0.235643 0.199847,-0.468231 0.28195,-0.706931 0.249053,-0.724073 0.500945,-1.659951 0.654275,-2.389179 0.201571,-0.958651 0.296222,-1.57641 0.329188,-2.533434 0.0068,-0.198529 -0.01774,-0.398396 -0.02661,-0.597595 0.0063,-0.03415 -0.633133,-0.130626 -0.639386,-0.09647 z" />
    <path
       style="fill:#ffffff;stroke-width:0.574229;stroke-linejoin:round"
       id="path11661-4"
       d="m 8.7165843,6.6393133 c 0.049892,0.00589 0.099785,0.011779 0.1496765,0.017675 0.014359,0.00528 0.028056,0.013185 0.043082,0.015869 0.115813,0.020682 0.33686,0.1909467 0.4417763,0.261404 C 9.477933,7.0194203 9.5837986,7.2243114 9.6577625,7.3419061 9.7006725,7.4465117 9.7601166,7.545436 9.786495,7.6557227 9.819841,7.7951411 9.827279,7.9402248 9.835161,8.0835998 9.858937,8.5161506 9.834397,8.9770857 9.6458084,9.3736418 9.6016718,9.46644 9.5324835,9.5441225 9.4758221,9.629362 9.1323722,9.801664 8.8413534,9.7516019 8.4841647,9.6813844 8.1575225,9.6171612 7.9434154,9.6303819 7.7053158,9.3706789 7.6228092,9.2806727 7.5862322,9.1554743 7.52669,9.0478732 7.5093681,8.9058032 7.4710943,8.7648057 7.4747232,8.6216646 7.4792719,8.4421569 7.5108509,8.2634643 7.5510019,8.0887451 7.6613532,7.6085228 7.8875343,7.0770627 8.2835953,6.7713911 8.372912,6.7024589 8.4853289,6.6731928 8.5861956,6.6240933 c 0.1093279,0.011245 0.2210238,0.0078 0.3279839,0.033729 0.053613,0.012999 0.096227,0.055385 0.1453823,0.081015 0.085515,0.044593 0.1723625,0.08641 0.2585437,0.1296145 0.037377,0.031379 0.4180309,-0.4432547 0.4180309,-0.4432547 v 0 c 0,0 -0.235761,-0.1896038 -0.3745461,-0.2388053 C 8.7700214,5.9766707 8.7139192,5.9499471 8.1524102,6.0396234 7.9969587,6.1280834 7.8261662,6.1924971 7.6860562,6.3050035 7.0014356,6.854744 6.6603345,7.8644185 6.7268269,8.7394747 c 0.016724,0.2200663 0.091831,0.4311865 0.1377458,0.6467788 0.1102932,0.1799729 0.1889028,0.3854137 0.3308799,0.5399197 0.2910865,0.3167708 0.6511273,0.4669188 1.062852,0.5144048 0.4556049,0.05255 0.959445,0.05001 1.3887301,-0.152859 C 9.8070718,10.212096 9.9339408,10.07715 10.077394,9.9718634 10.162145,9.8435809 10.263612,9.7255018 10.331647,9.5870166 10.655471,8.927873 10.659303,8.0992613 10.43519,7.4085107 10.388465,7.2644971 10.310734,7.1332669 10.248507,6.9956454 10.030402,6.6942487 9.9898641,6.574732 9.6708492,6.3799007 9.3828179,6.2039913 8.9335913,6.2207472 8.6178106,6.2694909 c -0.037171,0.012475 0.061602,0.3822992 0.098774,0.3698224 z"
       sodipodi:nodetypes="cccccsscccscsssccccssscsscscccsscscc" />
    <path
       style="fill:#ffffff;stroke-width:0.660783;stroke-linejoin:round"
       id="path11673-0"
       d="m 18.860075,7.2610861 c -0.0613,-0.011896 -0.131797,-0.00309 -0.18334,-0.038409 -0.02743,-0.018798 0.02281,0.00224 -0.01661,-0.098606 -0.08574,-0.4567188 -0.05107,-0.1571236 -0.0706,-0.7539161 0.02846,-0.479096 0.06172,-1.0740041 0.377941,-1.4705585 0.07245,-0.090846 0.161448,-0.1909251 0.275185,-0.2135692 0.244398,-0.048656 0.537462,0.1443901 0.734836,0.2474249 0.189871,0.1071829 0.400986,0.1831793 0.569616,0.3215504 0.341985,0.2806213 0.613576,0.7113343 0.746876,1.1309967 0.08804,0.2771804 0.149006,0.7238528 -0.02845,1.0008008 -0.06651,0.1037978 -0.199608,0.1442656 -0.29941,0.2163985 -0.159526,0.019573 -0.31794,0.063143 -0.478578,0.058719 -0.461418,-0.012708 -0.694237,-0.093252 -1.10381,-0.2376006 -0.672559,-0.237036 -0.469337,-0.1521391 -1.018682,-0.450465 -0.04338,-0.041534 -0.401784,0.37478 -0.376018,0.4291 l 0.03487,0.073503 c 0.08707,0.1835495 0.121866,0.2929475 0.296258,0.396465 0.564352,0.3349947 1.049141,0.5720331 1.714465,0.6286155 0.287537,0.024448 0.582744,0.014138 0.864397,-0.049103 0.256862,-0.057675 0.484972,-0.2055485 0.727458,-0.3083224 0.162071,-0.1856227 0.371183,-0.3387773 0.486223,-0.5568668 0.114816,-0.2176637 0.170941,-0.4692581 0.1847,-0.7150655 C 22.348746,5.954829 21.856592,5.0780953 21.151414,4.5247316 20.927213,4.3487989 20.651485,4.2514702 20.40152,4.1148397 19.654466,3.9864572 19.321611,3.7828338 18.635245,4.1367547 c -0.178234,0.091904 -0.318104,0.2517374 -0.439048,0.412033 -0.266834,0.3536538 -0.390868,0.7870544 -0.441606,1.2197498 -0.02582,0.2200122 -0.0058,0.4429938 -0.0088,0.6644897 0.09418,0.5626064 0.114553,1.0518337 0.619559,1.4173632 0.06428,0.046527 0.152591,0.044183 0.230573,0.058547 0.171073,0.03151 0.231073,0.024524 0.395152,0.023785 0.205948,-0.4435469 -0.03444,-0.6209174 -0.131036,-0.6716359 z"
       sodipodi:nodetypes="csccsscssscsscssssscssscssccsscc" />
    <path
       style="fill:#ffffff;stroke-width:0.93175;stroke-linejoin:round"
       id="path11703-7"
       d="m 25.882941,12.278838 c -0.204646,0.131174 -0.391205,0.288613 -0.586807,0.432923 -0.15618,0.169873 -0.332781,0.323032 -0.468556,0.509622 -0.331835,0.456019 -0.503893,1.025766 -0.357123,1.583092 0.10957,0.416091 0.252443,0.508806 0.524606,0.827431 0.144,0.110434 0.278768,0.234025 0.431946,0.331299 0.526268,0.334192 1.172234,0.547815 1.796693,0.577147 0.12261,0.0058 0.24549,-0.0043 0.36824,-0.0063 0.223308,-0.05438 0.451956,-0.09022 0.669927,-0.16312 0.152815,-0.05111 0.294443,-0.131569 0.436842,-0.206982 0.481126,-0.254785 0.977692,-0.568403 1.297734,-1.022542 0.108487,-0.15393 0.176881,-0.332503 0.26533,-0.498751 0.03599,-0.165011 0.09417,-0.326709 0.107929,-0.495031 0.02488,-0.305544 -0.03641,-0.578601 -0.166846,-0.85202 -0.161642,-0.338773 -0.435021,-0.577023 -0.706878,-0.823017 -0.449456,-0.341822 -0.93978,-0.649982 -1.483363,-0.81801 -0.09985,-0.03086 -0.202817,-0.0506 -0.304226,-0.07591 -0.297289,-0.03908 -0.73129,0.132489 -1.013565,0.272937 -0.184964,0.09203 -0.122295,0.127471 -0.125018,0.3064 -9.75e-4,0.06318 0.03634,0.121059 0.0545,0.181589 0.0243,0.05657 0.824214,-0.288 0.799851,-0.344556 v 0 c 0.0048,0.03287 0.01944,0.06594 0.01418,0.09868 -0.0157,0.09432 -0.05596,0.276726 -0.169675,0.327555 -0.06754,0.0302 -0.146483,0.02167 -0.218825,0.03718 -0.08523,0.01836 0.493317,-0.07709 0.261377,0.0092 0.199917,0.04337 0.271464,0.05143 0.467918,0.12635 0.355693,0.135651 0.680107,0.343629 0.992822,0.557192 0.171216,0.134716 0.381284,0.270514 0.499253,0.460891 0.125419,0.202403 0.09441,0.409946 0.01887,0.625039 -0.05401,0.094 -0.09383,0.197779 -0.162099,0.282004 -0.237919,0.293508 -0.74963,0.714907 -0.922675,0.823161 -0.173041,0.108254 -0.283982,0.175268 -0.451858,0.223876 -0.06857,0.01175 -0.136157,0.0357 -0.205747,0.03506 -0.168444,-0.0012 -0.456438,-0.08974 -0.60084,-0.134248 -0.400863,-0.123499 -0.79882,-0.265854 -1.160668,-0.481544 -0.135349,-0.09796 -0.249123,-0.145099 -0.311818,-0.307717 -0.177893,-0.461381 0.360022,-0.892529 0.642861,-1.146314 0.176958,-0.114089 0.349439,-0.235445 0.530884,-0.342253 0.575314,-0.338652 1.182116,-0.626128 1.795606,-0.887517 0.412604,-0.1758 0.347668,-0.02891 0.411763,-0.202951 -1.139861,-0.503402 -1.899813,-0.508573 -2.972532,0.1802 z"
       sodipodi:nodetypes="ccsscsccsssccccscsscsscsccccscczccccscssccc" />
    <path
       style="fill:#ffffff;stroke-width:0.702241;stroke-linejoin:round"
       id="path11705-5"
       d="m 24.135466,22.495619 c -0.848517,0.46346 -1.696175,1.101362 -2.243856,1.917546 -0.122154,0.182042 -0.210889,0.385002 -0.316333,0.577504 -0.05886,0.230636 -0.148566,0.455341 -0.176578,0.691919 -0.06493,0.54838 0.37627,1.53435 0.832388,1.897558 0.13395,0.106662 0.293466,0.195703 0.461773,0.221563 0.25761,0.03958 0.520596,-0.02033 0.780886,-0.03065 0.205831,-0.07713 0.961511,-0.263775 2.017759,-0.903799 0.642312,-0.420523 0.813488,-0.883034 1.19192,-1.483216 0.144257,-0.228784 0.157154,-0.59687 0.240989,-0.854844 -0.0046,-0.265612 0.03092,-0.535088 -0.01421,-0.796825 -0.10656,-0.618384 -0.816694,-1.383311 -1.436228,-1.564077 -0.563846,-0.164517 -0.996819,-0.05898 -1.549813,0.150599 -0.422921,0.217786 -0.646857,0.376251 -0.99159,0.678767 -0.189141,0.165979 -0.696562,0.213791 -0.80736,0.462755 -0.04096,0.09203 0.14663,0.149491 0.127484,0.248604 -0.0074,0.04935 0.385038,0.273913 0.392494,0.224568 v 0 c -0.01082,0.109415 -0.01117,0.02259 0.168078,-0.08582 0.477947,-0.289035 0.995138,-0.503867 1.511717,-0.709664 0.239787,-0.118898 0.673293,-0.296595 0.948629,-0.11336 0.09563,0.06365 0.334383,0.202986 0.39059,0.304044 0.20643,0.371156 0.311093,0.296041 0.344765,0.95746 -0.0042,0.258186 0.01079,0.433141 -0.05457,0.608602 -0.143374,0.384589 -0.327258,0.857283 -0.696952,1.138986 -0.21131,0.161018 -0.491377,0.338148 -0.822883,0.532433 -0.442857,0.259544 -0.958842,0.557992 -1.406836,0.476143 -0.222316,-0.03387 -0.701252,-0.547227 -0.729184,-0.744792 -0.02091,-0.14757 -0.02368,-0.29898 -0.0076,-0.447119 0.01768,-0.162695 0.07217,-0.319027 0.108257,-0.478543 0.0945,-0.150763 0.177855,-0.309337 0.283489,-0.452286 0.285788,-0.386747 0.520195,-0.593585 0.87239,-0.921709 0.15811,-0.147303 0.319705,-0.290707 0.479557,-0.436061 0.126637,-0.121317 0.251982,-0.244027 0.379904,-0.363944 0.07261,-0.06806 0.147716,-0.133257 0.221571,-0.199895 0.03497,-0.03588 -0.465652,-0.538312 -0.500636,-0.50245 z"
       sodipodi:nodetypes="cscsssccsccscsscssccsscsssccscsscsccc" />
    <path
       style="fill:#ffffff;stroke-width:0.607999;stroke-linejoin:round"
       id="path11707-0"
       d="m 11.974312,26.351712 c -0.375196,0.112748 -0.747663,0.370924 -1.027834,0.6489 -0.06813,0.0676 -0.125328,0.145394 -0.187993,0.21809 -0.04856,0.08698 -0.107834,0.168781 -0.14567,0.260929 -0.177358,0.431934 -0.155175,0.950538 0.06409,1.363444 0.06679,0.125779 0.163834,0.232993 0.245751,0.349488 0.112892,0.09623 0.215336,0.206273 0.338679,0.288681 0.565242,0.377644 1.351295,0.457908 2.012287,0.445217 0.173405,-0.0033 0.346155,-0.02233 0.519232,-0.0335 0.487105,-0.07066 0.970286,-0.197808 1.350604,-0.529923 0.218006,-0.190377 0.368778,-0.429885 0.494976,-0.686321 0.05807,-0.117997 0.09911,-0.243635 0.148663,-0.365456 0.09851,-0.339549 0.233386,-0.751238 0.109953,-1.105275 -0.08144,-0.233594 -0.143152,-0.248964 -0.322697,-0.418874 -0.13499,-0.06384 -0.264038,-0.142165 -0.40497,-0.191519 -0.318147,-0.111417 -0.837426,-0.198462 -1.16097,-0.237479 -0.472929,-0.057 -0.936724,-0.09642 -1.411908,-0.09049 -0.135109,0.0017 -0.269745,0.01637 -0.404618,0.02456 -0.07934,0.01903 -0.195072,0.02863 -0.346776,0.111541 -0.724541,0.335149 -0.08597,0.278286 0.01292,0.548564 0.0227,0.06203 0.119149,0.0581 0.182082,0.07815 0.219046,-0.0045 0.485069,0.01315 0.61859,0.02554 0.03689,0.0011 0.07378,0.0022 0.110672,0.0033 0.04241,-0.0065 -0.170418,-0.565243 -0.212829,-0.558738 v 0 c -0.03904,-0.0063 -0.07806,-0.01274 -0.117094,-0.01906 0.0929,0.01243 -0.201877,-0.02698 -0.216657,0.01233 -0.05342,0.142091 -0.06176,0.297294 -0.0887,0.446686 -0.0024,0.01331 -0.01194,0.03614 8.57e-4,0.04059 0.06724,0.02337 0.140655,0.0221 0.210992,0.03307 0.426595,0.0507 0.478769,0.06024 0.948084,0.09915 0.341066,0.0283 0.68292,0.04632 1.024124,0.07293 0.16721,0.01309 0.08417,0.0055 0.251492,0.01714 0.100985,0.007 0.207966,0.01386 0.346119,0.03167 0.106009,0.01947 0.209464,0.0568 0.266695,0.110812 0.05643,0.05325 0.07511,0.150591 0.07202,0.215009 -0.03418,0.167593 -0.08846,0.352283 -0.142937,0.511516 -0.105323,0.262339 -0.197918,0.556169 -0.436996,0.733408 -0.315918,0.234204 -0.7283,0.277873 -1.101723,0.339528 -0.615708,0.03656 -0.307201,0.02975 -0.911684,0.02096 -0.07054,-0.0011 -0.141643,0.0059 -0.211643,-0.003 -0.209153,-0.02636 -0.468486,-0.08503 -0.661064,-0.178218 -0.08966,-0.04339 -0.167752,-0.107442 -0.251628,-0.161165 -0.06372,-0.06955 -0.136074,-0.132096 -0.19119,-0.208654 -0.145811,-0.202536 -0.196929,-0.426727 -0.169684,-0.671651 0.0067,-0.06029 0.0152,-0.121443 0.03626,-0.178345 0.02081,-0.05635 0.05848,-0.104949 0.08772,-0.157422 0.0455,-0.05029 0.08742,-0.104051 0.136496,-0.150852 0.240014,-0.228915 0.541863,-0.373516 0.827648,-0.534439 0.03585,-0.02118 -0.253831,-0.591933 -0.289691,-0.570758 z"
       sodipodi:nodetypes="cscsscsccsscscsccccscccsscscscccccsccsccsscsscccccc" />
    <path
       style="fill:#ffffff;stroke-width:0.573666;stroke-linejoin:round"
       id="path11743-2"
       d="m 5.2146185,16.463989 c -0.2074738,0.140658 -0.4425437,0.254715 -0.6224209,0.421971 -0.5317336,0.494424 -0.9620713,1.134213 -1.0693463,1.82803 -0.1131688,0.731938 0.079519,1.622777 0.5905203,2.244848 0.2197414,0.267503 0.5705141,0.429862 0.8557712,0.644792 0.4322758,0.04769 0.8760934,0.227076 1.2968275,0.143066 0.3992573,-0.07972 0.732335,-0.341169 1.0077989,-0.603246 0.4986207,-0.474419 0.9088102,-1.394784 0.8974907,-2.053645 -0.016557,-0.963429 -0.3794592,-1.193931 -0.9677755,-1.927411 -0.661979,-0.412532 -0.88576,-0.671584 -1.6959497,-0.752947 -0.3056229,-0.03062 -0.4250998,0.142477 -0.7309874,0.370815 -0.055023,0.01536 0.029037,0.379001 0.084063,0.363625 v 0 c 0.078986,-0.01483 0.1560348,-0.0532 0.2369572,-0.04451 0.6212404,0.06657 0.821762,0.142937 1.1489149,0.397297 0.1759563,0.191276 0.4827867,0.45076 0.6119861,0.668248 0.3506129,0.590204 0.296108,0.986308 0.082955,1.603534 -0.1792176,0.518957 -0.3953498,0.870521 -0.8946673,1.173099 -0.1040398,0.06306 -0.2422469,0.0674 -0.3633677,0.101083 C 5.4930373,20.918407 5.2549539,20.836327 5.1123358,20.669951 4.9210802,20.446833 4.7969127,20.179145 4.7138066,19.911529 4.6209383,19.612477 4.5679591,19.298076 4.5911431,18.991619 4.6494167,18.221327 5.004437,17.774425 5.4586114,17.154912 5.5921471,16.980568 5.2537225,16.442954 5.2146185,16.463989 Z"
       sodipodi:nodetypes="cssscccscccssccssscssscc" />
    <path
       style="fill:#ffffff;stroke-width:0.607999;stroke-linejoin:round"
       id="path11923"
       d="m 14.593963,13.863057 c -0.09755,0.04433 -0.211116,0.06348 -0.292659,0.132988 -0.901682,0.768681 -1.293805,2.158735 -1.357733,3.296856 -0.01863,0.331663 0.01989,0.664073 0.02984,0.99611 0.0592,0.294304 0.09269,0.594969 0.177592,0.88291 0.194358,0.659122 0.566972,1.317021 1.179275,1.672032 0.55897,0.324088 0.836257,0.26664 1.498211,0.330291 0.254315,-0.04086 0.513694,-0.05762 0.762946,-0.12258 0.84309,-0.219721 1.581197,-0.691381 2.114072,-1.38601 0.574566,-0.748979 0.613477,-1.062342 0.940233,-1.944172 0.06256,-0.357188 0.163663,-0.709736 0.187688,-1.071566 0.08709,-1.311609 -0.256545,-2.894341 -1.464941,-3.63222 -0.236315,-0.144301 -0.517098,-0.198189 -0.775646,-0.297283 -0.343061,-0.01688 -0.686348,-0.07165 -1.029182,-0.05065 -0.281161,0.01721 -0.557689,0.08837 -0.828908,0.164443 -0.714325,0.200369 -1.567489,0.840585 -1.751571,1.14242 -0.141698,0.23234 -0.451558,0.741734 -0.499569,0.896595 -0.127854,0.495864 -0.194631,0.592754 -0.0061,0.611151 0.666582,0.0888 0.519772,-0.849993 0.498115,-0.887115 v 0 c -0.03646,0.209871 -0.07094,0.22224 0.03491,0.10418 0.09007,-0.06716 0.175591,-0.140879 0.270207,-0.201456 0.346594,-0.221902 0.724005,-0.41054 1.102564,-0.569071 0.232165,-0.09722 0.46593,-0.193047 0.707335,-0.264295 0.391457,-0.115535 0.677581,-0.144345 1.059326,-0.195888 0.181364,0.04433 0.376969,0.04978 0.54409,0.132989 0.440797,0.219573 0.657471,0.575199 0.828654,1.025779 0.191869,0.505031 0.329251,1.321499 0.30529,1.855095 -0.01416,0.315494 -0.109192,0.622114 -0.163793,0.933169 -0.217107,0.664379 -0.304365,1.101234 -0.699871,1.681135 -0.412208,0.604391 -1.006686,0.948524 -1.69611,1.144067 -0.196868,0.05584 -0.401722,0.07821 -0.602583,0.11732 -0.301907,0.03089 -0.444159,0.07751 -0.756443,-0.05659 -0.127496,-0.05476 -0.242391,-0.14261 -0.33754,-0.243603 -0.450166,-0.477815 -0.53013,-1.159058 -0.61821,-1.774714 -0.0055,-0.289345 -0.03104,-0.579005 -0.01651,-0.86804 0.0296,-0.588274 0.140062,-1.205015 0.313375,-1.768212 0.03973,-0.129102 0.309312,-1.01816 0.445728,-1.212667 0.04746,-0.06768 0.446225,-0.385057 0.511464,-0.435827 0.03627,-0.02348 -0.577265,-0.161046 -0.613537,-0.137577 z"
       sodipodi:nodetypes="ccscsscsscssccssccsscsssccsscsscssccsscsc" />
  </g>
</svg>
