<?xml version="1.0" encoding="UTF-8" standalone="no"?>
<!-- Created with Inkscape (http://www.inkscape.org/) -->

<svg
   width="128"
   height="128"
   viewBox="0 0 33.866666 33.866666"
   version="1.1"
   id="svg1768"
   inkscape:version="1.2.2 (b0a84865, 2022-12-01)"
   sodipodi:docname="create-space.svg"
   xmlns:inkscape="http://www.inkscape.org/namespaces/inkscape"
   xmlns:sodipodi="http://sodipodi.sourceforge.net/DTD/sodipodi-0.dtd"
   xmlns="http://www.w3.org/2000/svg"
   xmlns:svg="http://www.w3.org/2000/svg">
  <sodipodi:namedview
     id="namedview1770"
     pagecolor="#ffffff"
     bordercolor="#000000"
     borderopacity="0.25"
     inkscape:showpageshadow="2"
     inkscape:pageopacity="0.0"
     inkscape:pagecheckerboard="0"
     inkscape:deskcolor="#d1d1d1"
     inkscape:document-units="mm"
     showgrid="false"
     inkscape:zoom="2.587745"
     inkscape:cx="121.53439"
     inkscape:cy="71.684035"
     inkscape:window-width="2089"
     inkscape:window-height="1205"
     inkscape:window-x="377"
     inkscape:window-y="104"
     inkscape:window-maximized="0"
     inkscape:current-layer="layer1" />
  <defs
     id="defs1765">
    <inkscape:path-effect
       effect="powerstroke"
       id="path-effect2171"
       is_visible="true"
       lpeversion="1"
       offset_points="1.222439,1.0844693"
       not_jump="true"
       sort_points="true"
       interpolator_type="CentripetalCatmullRom"
       interpolator_beta="0.75"
       start_linecap_type="round"
       linejoin_type="spiro"
       miter_limit="4"
       scale_width="1"
       end_linecap_type="round" />
    <inkscape:path-effect
       effect="simplify"
       id="path-effect2169"
       is_visible="true"
       lpeversion="1"
       steps="1"
       threshold="0.0047745358"
       smooth_angles="0"
       helper_size="0"
       simplify_individual_paths="false"
       simplify_just_coalesce="false"
       step="1" />
  </defs>
  <g
     inkscape:label="Layer 1"
     inkscape:groupmode="layer"
     id="layer1">
    <path
       style="fill:#ffffff;stroke-width:0.418965;stroke-linejoin:round"
       id="path2205"
       d="m 6.1385139,28.614784 c 0.2830552,-0.498692 0.5374154,-1.014053 0.7723702,-1.537023 0.1294233,-0.288075 0.2088132,-0.601418 0.3744782,-0.87029 0.2843003,-0.461419 0.6447171,-0.871363 0.9670755,-1.307044 1.3293943,-1.612189 1.4840851,-1.837953 2.9278572,-3.425385 0.502202,-0.552174 1.016515,-1.09327 1.53191,-1.63315 0.643333,-0.673897 1.476674,-1.530485 2.183414,-2.184236 0.156785,-0.14503 0.325384,-0.276743 0.488077,-0.415114 0.04253,-0.03351 -0.431266,-0.634996 -0.473798,-0.601492 v 0 c -0.271577,0.08627 -0.558979,0.133152 -0.814732,0.258796 -0.959604,0.471423 -1.95699,1.268763 -2.719022,1.9757 -1.155168,1.071651 -2.2475135,2.306602 -3.147528,3.600306 -0.4247563,0.610555 -0.769278,1.273182 -1.1539168,1.909774 -0.2130995,0.525447 -0.4425937,1.04454 -0.6392981,1.576344 -0.1089455,0.29454 -0.1903004,0.598654 -0.2768553,0.900534 -0.069826,0.243534 -0.1296625,0.489831 -0.1921821,0.735344 -0.079252,0.31122 -0.159085,0.62248 -0.1987756,0.941754 -0.00532,0.02622 0.3656097,0.101411 0.3709258,0.07519 z" />
    <path
       style="fill:#ffffff;stroke-width:0.418965;stroke-linejoin:round"
       id="path2207"
       d="m 5.7916358,21.681451 c 0.1884175,-0.249229 0.344898,-0.520909 0.5139163,-0.782965 0.1407718,-0.218262 0.282227,-0.436105 0.4267548,-0.651898 0.1833043,-0.273689 0.346298,-0.563029 0.5566986,-0.816481 0.2923826,-0.352209 0.6312119,-0.663117 0.9468178,-0.994677 0.6608668,-0.641514 1.5264486,-1.526993 2.2748947,-2.073496 0.416351,-0.304012 0.859319,-0.572935 1.314829,-0.814351 0.97276,-0.515552 1.557831,-0.671609 2.570113,-1.013034 0.06933,-0.03739 -0.45944,-1.017832 -0.528768,-0.980442 v 0 c -0.460579,0.12151 -0.934115,0.201645 -1.381738,0.364532 -0.518208,0.188573 -1.023549,0.417879 -1.505391,0.686074 -0.941388,0.52398 -1.8691562,1.25145 -2.6341684,2.008341 -0.3842513,0.380174 -0.7200017,0.806425 -1.0800025,1.209636 -0.2673667,0.403404 -0.5539798,0.794693 -0.8021003,1.210211 -0.1731972,0.290047 -0.3185614,0.59628 -0.4598529,0.903138 -0.2369791,0.514671 -0.4164853,1.055807 -0.5559302,1.604255 -0.00998,0.02432 0.3339458,0.165476 0.3439271,0.141157 z" />
    <path
       style="fill:#ffffff;stroke-width:0.418965;stroke-linejoin:round"
       id="path2209"
       d="m 11.368078,28.467746 c 0.104462,-0.115381 0.214601,-0.225865 0.313383,-0.346143 0.486494,-0.592356 0.912171,-1.193847 1.359187,-1.820813 0.675266,-0.947098 1.291613,-1.856035 1.988906,-2.789261 0.342195,-0.45798 0.700314,-0.903844 1.050472,-1.355767 0.904064,-1.05433 0.912834,-1.131631 1.878525,-2.022713 0.221127,-0.204044 0.458722,-0.389484 0.688084,-0.584226 0.04597,-0.04388 -0.574601,-0.693883 -0.620563,-0.650003 v 0 c -0.300265,0.174022 -0.617815,0.321156 -0.900794,0.522067 -0.96772,0.687062 -1.341548,1.157944 -2.184797,2.025451 -0.368184,0.468127 -0.757174,0.920614 -1.104549,1.404384 -0.696553,0.97005 -1.248158,1.911005 -1.794651,2.968195 -0.320686,0.620366 -0.66864,1.379959 -0.907828,2.053982 -0.04976,0.140223 -0.07877,0.286969 -0.118149,0.430453 -0.01163,0.02494 0.34115,0.189339 0.352774,0.164394 z" />
    <path
       style="fill:#ffffff;stroke-width:0.787064;stroke-linejoin:round"
       id="path2219"
       d="m 22.136793,5.4960678 c -0.02087,0.1155186 -0.0464,0.2302931 -0.06262,0.3465575 -0.135358,0.9706984 -0.180652,1.955055 -0.250368,2.9315685 -0.13879,1.9440522 -0.08203,1.1795766 -0.244966,3.2075102 -0.109076,1.525497 -0.290702,3.047347 -0.338159,4.57707 -0.0091,0.29222 0.0022,0.584717 0.0034,0.877074 -0.0093,0.08133 1.140992,0.21241 1.150261,0.131074 v 0 c 0.08034,-0.290565 0.176846,-0.577137 0.241002,-0.871697 0.332038,-1.524487 0.462261,-3.086803 0.563005,-4.640192 0.01609,-0.572503 0.045,-1.144791 0.04827,-1.71751 0.0054,-0.9500575 -0.03296,-1.9187022 -0.112183,-2.8664345 -0.03947,-0.4721842 -0.120714,-1.1527939 -0.211111,-1.6454382 -0.02039,-0.111094 -0.05247,-0.2197217 -0.07871,-0.3295825 0,-0.050047 -0.707775,-0.050047 -0.707775,0 z" />
    <path
       style="fill:#ffffff;stroke-width:0.787064;stroke-linejoin:round"
       id="path2245"
       d="m 16.894091,11.72394 c 0.06061,0.04251 0.232067,0.0671 0.371751,0.07286 0.234738,0.0097 0.472697,0.01772 0.697709,0.03253 1.002797,0.06598 1.457655,0.135378 2.473455,0.239662 0.528924,0.05431 1.059389,0.09236 1.589082,0.138552 1.921815,-0.07801 3.513259,-0.01711 5.244927,-0.172557 0.459936,-0.04128 1.181013,-0.264343 1.597905,-0.562812 0.106565,-0.07629 0.164353,-0.204189 0.246528,-0.306283 0.04,-0.03962 -0.560308,-0.565696 -0.560308,-0.565696 v 0 c 0,0 -0.03865,-0.01358 -0.731671,0.01491 -0.338513,0.01392 -0.677177,0.0243 -1.015872,0.03276 -1.503852,0.03755 -2.844265,-0.05155 -4.345477,0.0588 -0.534529,0.0063 -1.069023,0.0171 -1.603585,0.01912 -2.634555,0.01 -0.284133,-0.02175 -2.55628,0.02623 -0.635016,0.01341 -0.768354,0.0056 -1.385622,0.05959 -0.05289,0.0047 -0.10461,0.01821 -0.156925,0.02733 -0.04753,0.01217 0.08684,0.897202 0.134383,0.884996 z"
       sodipodi:nodetypes="cssscsscsssscssscc" />
  </g>
</svg>
