<?xml version="1.0" encoding="UTF-8" standalone="no"?>
<!-- Created with Inkscape (http://www.inkscape.org/) -->

<svg
   width="128"
   height="128"
   viewBox="0 0 33.866666 33.866666"
   version="1.1"
   id="svg8880"
   sodipodi:docname="create-profile.svg"
   inkscape:version="1.2.2 (b0a84865, 2022-12-01)"
   xmlns:inkscape="http://www.inkscape.org/namespaces/inkscape"
   xmlns:sodipodi="http://sodipodi.sourceforge.net/DTD/sodipodi-0.dtd"
   xmlns="http://www.w3.org/2000/svg"
   xmlns:svg="http://www.w3.org/2000/svg">
  <sodipodi:namedview
     id="namedview8882"
     pagecolor="#717171"
     bordercolor="#000000"
     borderopacity="0.25"
     inkscape:showpageshadow="2"
     inkscape:pageopacity="0"
     inkscape:pagecheckerboard="0"
     inkscape:deskcolor="#d1d1d1"
     inkscape:document-units="px"
     showgrid="false"
     inkscape:zoom="2.8284271"
     inkscape:cx="74.069435"
     inkscape:cy="62.04862"
     inkscape:window-width="2003"
     inkscape:window-height="1205"
     inkscape:window-x="164"
     inkscape:window-y="78"
     inkscape:window-maximized="0"
     inkscape:current-layer="layer1" />
  <defs
     id="defs8877" />
  <g
     inkscape:label="Layer 1"
     inkscape:groupmode="layer"
     id="layer1">
    <path
       style="fill:#ffffff;fill-opacity:1;stroke-width:0.629041;stroke-linejoin:round"
       id="path9466"
       d="m 16.961405,11.421689 c 0.06766,-0.07343 0.452309,-0.601119 0.524428,-0.67091 0.625674,-0.605483 1.731238,-1.2940854 2.133851,-1.5598158 0.221041,-0.1458901 1.168297,-0.4781719 1.4302,-0.5476247 0.256021,-0.020666 0.511071,-0.06536 0.768065,-0.062003 0.157292,0.00207 0.313336,0.03713 0.46411,0.078102 0.468948,0.1274345 0.720011,0.2351897 1.072321,0.5498965 0.375492,0.3354152 0.576528,0.6864307 0.854207,1.090795 0.307062,0.546471 0.564477,0.942462 0.74713,1.549133 0.331409,1.100768 0.26417,1.813573 0.03003,2.934321 -0.08197,0.392331 -0.238037,0.768665 -0.357055,1.152996 -0.206232,0.385621 -0.386896,0.783551 -0.618697,1.156863 -0.429456,0.691627 -0.921569,1.498508 -1.463801,2.109256 -0.34117,0.384282 -0.716017,0.804093 -1.087293,1.167248 -0.622005,0.608399 -1.516789,1.814468 -2.172065,2.370665 -0.542839,0.513065 -1.599841,1.615736 -2.005219,2.09457 -0.168492,0.199023 -0.341759,0.44952 -0.427791,0.692428 -0.08919,0.251807 -0.115711,0.230268 -0.107907,0.481501 0.06876,0.280457 0.05512,0.413834 0.182037,0.642234 0.01593,0.03625 0.246315,-0.340068 0.331662,-0.464404 0.114513,-0.187656 0.262578,-0.425047 0.398067,-0.600005 0.09756,-0.09455 0.49618,-0.661871 0.606805,-0.743551 0.555485,-0.69506 0.750315,-0.909656 1.381122,-1.455241 0.828894,-0.659487 1.663038,-1.77726 2.44053,-2.508003 0.394145,-0.370444 0.869611,-0.699864 1.237147,-1.092463 0.330393,-0.352924 0.663366,-0.705631 0.956866,-1.08478 0.849635,-1.097578 0.873587,-1.312547 1.460723,-2.531603 0.345764,-1.160614 0.519866,-1.440542 0.518541,-2.659523 -9.6e-4,-0.920964 -0.03418,-1.096656 -0.367172,-1.957966 C 25.680041,11.00491 25.311576,10.428186 25.007022,9.9162417 24.843547,9.694128 24.694116,9.4628322 24.516595,9.2499011 24.188495,8.8563529 23.808991,8.4758729 23.340565,8.2154032 22.724822,7.8730171 22.251602,7.7993371 21.511592,7.7991802 c -0.308903,-6.54e-5 -0.61277,0.071888 -0.919156,0.1078314 -0.302075,0.098498 -0.6156,0.1715518 -0.906228,0.295493 -0.949377,0.4048706 -2.2915,1.4384545 -2.817143,2.2655214 -0.05901,0.09284 -0.09666,0.195716 -0.145002,0.293575 -0.01622,0.03609 0.221125,0.696177 0.237342,0.660088 z"
       sodipodi:nodetypes="ccsccsscsscssscssccccccssscsscssscsccc" />
    <path
       style="fill:#ffffff;fill-opacity:1;stroke-width:0.629041;stroke-linejoin:round"
       id="path9466-4"
       d="m 16.932286,11.459265 c -0.06766,-0.07343 -0.452309,-0.601119 -0.524428,-0.67091 C 15.782184,10.182872 14.67662,9.4942694 14.274007,9.228539 14.052966,9.0826489 13.10571,8.7503671 12.843807,8.6809143 c -0.256021,-0.020666 -0.511071,-0.06536 -0.768065,-0.062003 -0.157292,0.00207 -0.313336,0.03713 -0.46411,0.078102 -0.468948,0.1274345 -0.720011,0.2351897 -1.072321,0.5498965 -0.375492,0.3354152 -0.5765284,0.6864306 -0.8542074,1.0907952 -0.307062,0.546471 -0.564477,0.942462 -0.74713,1.549133 -0.331409,1.100768 -0.26417,1.813573 -0.03003,2.934321 0.08197,0.392331 0.238037,0.768665 0.357055,1.152996 0.206232,0.385621 0.386896,0.783551 0.618697,1.156863 0.4294564,0.691627 0.9215694,1.498508 1.4638014,2.109256 0.34117,0.384282 0.716017,0.804093 1.087293,1.167248 0.622005,0.608399 1.516789,1.814468 2.172065,2.370665 0.542839,0.513065 1.599841,1.615736 2.005219,2.09457 0.168492,0.199023 0.341759,0.44952 0.427791,0.692428 0.08919,0.251807 0.115711,0.230268 0.107907,0.481501 -0.06876,0.280457 -0.05512,0.413834 -0.182037,0.642234 -0.01593,0.03625 -0.246315,-0.340068 -0.331662,-0.464404 -0.114513,-0.187656 -0.262578,-0.425047 -0.398067,-0.600005 -0.09756,-0.09455 -0.49618,-0.661871 -0.606805,-0.743551 -0.555485,-0.69506 -0.750315,-0.909656 -1.381122,-1.455241 -0.828894,-0.659487 -1.663038,-1.77726 -2.44053,-2.508003 -0.394145,-0.370444 -0.869611,-0.699864 -1.237147,-1.092463 -0.330393,-0.352924 -0.6633664,-0.705631 -0.9568664,-1.08478 -0.849635,-1.097578 -0.873587,-1.312547 -1.460723,-2.531603 -0.345764,-1.160614 -0.519866,-1.440542 -0.518541,-2.659523 9.6e-4,-0.920964 0.03418,-1.096656 0.367172,-1.957966 0.212206,-0.548895 0.580671,-1.125619 0.885225,-1.6375636 0.163475,-0.2221136 0.312906,-0.4534094 0.490427,-0.6663405 0.3281,-0.3935482 0.7076044,-0.7740282 1.1760304,-1.0344979 0.615743,-0.3423861 1.088963,-0.4160661 1.828973,-0.416223 0.308903,-6.54e-5 0.61277,0.071888 0.919156,0.1078314 0.302075,0.098498 0.6156,0.1715518 0.906228,0.295493 0.949377,0.4048706 2.2915,1.4384545 2.817143,2.2655216 0.05901,0.09284 0.09666,0.195716 0.145002,0.293575 0.01622,0.03609 -0.221125,0.696177 -0.237342,0.660088 z"
       sodipodi:nodetypes="ccsccsscsscssscssccccccssscsscssscsccc" />
    <path
       style="fill:#ffffff;fill-opacity:1;stroke-width:0.607999;stroke-linejoin:round"
       id="path9557"
       d="m 16.737953,13.131843 c -0.01624,0.05895 -0.01684,0.120846 -0.03063,0.180191 -0.02329,0.100269 -0.05825,0.197742 -0.07854,0.298662 -0.07356,0.36597 -0.117824,0.775447 -0.146784,1.143369 -0.02046,0.259904 -0.03054,0.52052 -0.04581,0.78078 -0.02982,0.781246 -0.02063,1.563623 0.02203,2.344182 0.01061,0.194153 0.02731,0.387925 0.04089,0.581894 0.04366,0.62385 0.0137,0.324356 0.08202,0.878158 0.08369,0.296084 0.02322,0.178516 0.147779,0.368063 0.0024,0.02484 0.353728,-0.009 0.351333,-0.03388 v 0 c 0.09152,-0.166894 0.04407,-0.06014 0.108169,-0.333361 0.07019,-0.535212 0.03411,-0.249563 0.107049,-0.857094 0.02515,-0.196585 0.05877,-0.392131 0.07921,-0.589262 0.02487,-0.239874 0.04551,-0.480355 0.05665,-0.721258 0.03371,-0.729338 0.01021,-0.916617 -0.01904,-1.65035 -0.0545,-0.602986 -0.06615,-0.852158 -0.156797,-1.431243 -0.02564,-0.163816 -0.05515,-0.327196 -0.09225,-0.488804 -0.02387,-0.103969 -0.0614,-0.20433 -0.09042,-0.306981 -0.06124,-0.216646 -0.0035,-0.04355 -0.05653,-0.1964 -0.0024,-0.01968 -0.280705,0.01365 -0.278347,0.03333 z" />
    <path
       style="fill:#ffffff;fill-opacity:1;stroke-width:0.607999;stroke-linejoin:round"
       id="path9557-0"
       d="m 20.205656,16.208786 c -0.05895,-0.01624 -0.120846,-0.01684 -0.180191,-0.03063 -0.100269,-0.02329 -0.197742,-0.05825 -0.298662,-0.07854 -0.36597,-0.07356 -0.775447,-0.117824 -1.143369,-0.146784 -0.259904,-0.02046 -0.52052,-0.03054 -0.78078,-0.04581 -0.781246,-0.02982 -1.563623,-0.02063 -2.344182,0.02203 -0.194153,0.01061 -0.387925,0.02731 -0.581894,0.04089 -0.62385,0.04366 -0.324356,0.0137 -0.878158,0.08202 -0.296084,0.08369 -0.178516,0.02322 -0.368063,0.147779 -0.02484,0.0024 0.009,0.353728 0.03388,0.351333 v 0 c 0.166894,0.09152 0.06014,0.04407 0.333361,0.108169 0.535212,0.07019 0.249563,0.03411 0.857094,0.107049 0.196585,0.02515 0.392131,0.05877 0.589262,0.07921 0.239874,0.02487 0.480355,0.04551 0.721258,0.05665 0.729338,0.03371 0.916617,0.01021 1.65035,-0.01904 0.602986,-0.0545 0.852158,-0.06615 1.431243,-0.156797 0.163816,-0.02564 0.327196,-0.05515 0.488804,-0.09225 0.103969,-0.02387 0.20433,-0.0614 0.306981,-0.09042 0.216646,-0.06124 0.04355,-0.0035 0.1964,-0.05653 0.01968,-0.0024 -0.01365,-0.280705 -0.03333,-0.278347 z" />
  </g>
</svg>
