<?xml version="1.0" encoding="UTF-8" standalone="no"?>
<!-- Created with Inkscape (http://www.inkscape.org/) -->

<svg
   width="128"
   height="128"
   viewBox="0 0 33.866666 33.866666"
   version="1.1"
   id="svg1768"
   inkscape:version="1.2.2 (b0a84865, 2022-12-01)"
   sodipodi:docname="create-space.svg"
   xmlns:inkscape="http://www.inkscape.org/namespaces/inkscape"
   xmlns:sodipodi="http://sodipodi.sourceforge.net/DTD/sodipodi-0.dtd"
   xmlns="http://www.w3.org/2000/svg"
   xmlns:svg="http://www.w3.org/2000/svg">
  <sodipodi:namedview
     id="namedview1770"
     pagecolor="#808080"
     bordercolor="#000000"
     borderopacity="0.25"
     inkscape:showpageshadow="2"
     inkscape:pageopacity="1"
     inkscape:pagecheckerboard="0"
     inkscape:deskcolor="#d1d1d1"
     inkscape:document-units="mm"
     showgrid="false"
     inkscape:zoom="3.6596241"
     inkscape:cx="43.856964"
     inkscape:cy="51.508023"
     inkscape:window-width="2089"
     inkscape:window-height="1205"
     inkscape:window-x="377"
     inkscape:window-y="76"
     inkscape:window-maximized="0"
     inkscape:current-layer="layer1" />
  <defs
     id="defs1765">
    <inkscape:path-effect
       effect="powerstroke"
       id="path-effect2171"
       is_visible="true"
       lpeversion="1"
       offset_points="1.222439,1.0844693"
       not_jump="true"
       sort_points="true"
       interpolator_type="CentripetalCatmullRom"
       interpolator_beta="0.75"
       start_linecap_type="round"
       linejoin_type="spiro"
       miter_limit="4"
       scale_width="1"
       end_linecap_type="round" />
    <inkscape:path-effect
       effect="simplify"
       id="path-effect2169"
       is_visible="true"
       lpeversion="1"
       steps="1"
       threshold="0.0047745358"
       smooth_angles="0"
       helper_size="0"
       simplify_individual_paths="false"
       simplify_just_coalesce="false"
       step="1" />
  </defs>
  <g
     inkscape:label="Layer 1"
     inkscape:groupmode="layer"
     id="layer1">
    <path
       style="fill:#ffffff;stroke-width:0.418965;stroke-linejoin:round"
       id="path2205"
       d="m 6.1385139,28.614784 c 0.2830552,-0.498692 0.5374154,-1.014053 0.7723702,-1.537023 0.1294233,-0.288075 0.2088132,-0.601418 0.3744782,-0.87029 0.2843003,-0.461419 0.6447171,-0.871363 0.9670755,-1.307044 1.3293943,-1.612189 1.4840851,-1.837953 2.9278572,-3.425385 0.502202,-0.552174 1.016515,-1.09327 1.53191,-1.63315 0.643333,-0.673897 1.476674,-1.530485 2.183414,-2.184236 0.156785,-0.14503 0.325384,-0.276743 0.488077,-0.415114 0.04253,-0.03351 -0.431266,-0.634996 -0.473798,-0.601492 v 0 c -0.271577,0.08627 -0.558979,0.133152 -0.814732,0.258796 -0.959604,0.471423 -1.95699,1.268763 -2.719022,1.9757 -1.155168,1.071651 -2.2475135,2.306602 -3.147528,3.600306 -0.4247563,0.610555 -0.769278,1.273182 -1.1539168,1.909774 -0.2130995,0.525447 -0.4425937,1.04454 -0.6392981,1.576344 -0.1089455,0.29454 -0.1903004,0.598654 -0.2768553,0.900534 -0.069826,0.243534 -0.1296625,0.489831 -0.1921821,0.735344 -0.079252,0.31122 -0.159085,0.62248 -0.1987756,0.941754 -0.00532,0.02622 0.3656097,0.101411 0.3709258,0.07519 z" />
    <path
       style="fill:#ffffff;stroke-width:0.418965;stroke-linejoin:round"
       id="path2207"
       d="m 5.7916358,21.681451 c 0.1884175,-0.249229 0.344898,-0.520909 0.5139163,-0.782965 0.1407718,-0.218262 0.282227,-0.436105 0.4267548,-0.651898 0.1833043,-0.273689 0.346298,-0.563029 0.5566986,-0.816481 0.2923826,-0.352209 0.6312119,-0.663117 0.9468178,-0.994677 0.6608668,-0.641514 1.5264486,-1.526993 2.2748947,-2.073496 0.416351,-0.304012 0.859319,-0.572935 1.314829,-0.814351 0.97276,-0.515552 1.557831,-0.671609 2.570113,-1.013034 0.06933,-0.03739 -0.45944,-1.017832 -0.528768,-0.980442 v 0 c -0.460579,0.12151 -0.934115,0.201645 -1.381738,0.364532 -0.518208,0.188573 -1.023549,0.417879 -1.505391,0.686074 -0.941388,0.52398 -1.8691562,1.25145 -2.6341684,2.008341 -0.3842513,0.380174 -0.7200017,0.806425 -1.0800025,1.209636 -0.2673667,0.403404 -0.5539798,0.794693 -0.8021003,1.210211 -0.1731972,0.290047 -0.3185614,0.59628 -0.4598529,0.903138 -0.2369791,0.514671 -0.4164853,1.055807 -0.5559302,1.604255 -0.00998,0.02432 0.3339458,0.165476 0.3439271,0.141157 z" />
    <path
       style="fill:#ffffff;stroke-width:0.418965;stroke-linejoin:round"
       id="path2209"
       d="m 11.368078,28.467746 c 0.104462,-0.115381 0.214601,-0.225865 0.313383,-0.346143 0.486494,-0.592356 0.912171,-1.193847 1.359187,-1.820813 0.675266,-0.947098 1.291613,-1.856035 1.988906,-2.789261 0.342195,-0.45798 0.700314,-0.903844 1.050472,-1.355767 0.904064,-1.05433 0.912834,-1.131631 1.878525,-2.022713 0.221127,-0.204044 0.458722,-0.389484 0.688084,-0.584226 0.04597,-0.04388 -0.574601,-0.693883 -0.620563,-0.650003 v 0 c -0.300265,0.174022 -0.617815,0.321156 -0.900794,0.522067 -0.96772,0.687062 -1.341548,1.157944 -2.184797,2.025451 -0.368184,0.468127 -0.757174,0.920614 -1.104549,1.404384 -0.696553,0.97005 -1.248158,1.911005 -1.794651,2.968195 -0.320686,0.620366 -0.66864,1.379959 -0.907828,2.053982 -0.04976,0.140223 -0.07877,0.286969 -0.118149,0.430453 -0.01163,0.02494 0.34115,0.189339 0.352774,0.164394 z" />
    <path
       style="fill:#ffffff;stroke-width:0.787064;stroke-linejoin:round"
       id="path2219"
       d="m 22.136793,5.4960678 c -0.02087,0.1155186 -0.0464,0.2302931 -0.06262,0.3465575 -0.135358,0.9706984 -0.180652,1.955055 -0.250368,2.9315685 -0.13879,1.9440522 -0.08203,1.1795766 -0.244966,3.2075102 -0.109076,1.525497 -0.290702,3.047347 -0.338159,4.57707 -0.0091,0.29222 0.0022,0.584717 0.0034,0.877074 -0.0093,0.08133 1.140992,0.21241 1.150261,0.131074 v 0 c 0.08034,-0.290565 0.176846,-0.577137 0.241002,-0.871697 0.332038,-1.524487 0.462261,-3.086803 0.563005,-4.640192 0.01609,-0.572503 0.045,-1.144791 0.04827,-1.71751 0.0054,-0.9500575 -0.03296,-1.9187022 -0.112183,-2.8664345 -0.03947,-0.4721842 -0.120714,-1.1527939 -0.211111,-1.6454382 -0.02039,-0.111094 -0.05247,-0.2197217 -0.07871,-0.3295825 0,-0.050047 -0.707775,-0.050047 -0.707775,0 z" />
    <path
       style="fill:#ffffff;stroke-width:0.787064;stroke-linejoin:round"
       id="path2245"
       d="m 18.062961,12.145633 c 1.002797,0.06598 1.331133,-0.0047 2.355971,0.02729 0.531446,0.01659 1.077463,-0.01157 1.607156,0.03462 1.921815,-0.07801 2.947132,-0.0035 4.682581,-0.108654 0.532234,-0.03224 1.154769,7.19e-4 1.554817,-0.109572 0.121271,-0.03343 0.322466,-0.14301 0.289616,-0.759523 0.0017,-0.659479 -0.560308,-0.565696 -0.560308,-0.565696 v 0 c 0,0 -0.03865,-0.01358 -0.731671,0.01491 -0.338513,0.01392 -0.677177,0.0243 -1.015872,0.03276 -1.503852,0.03755 -2.281919,-0.115453 -3.783131,-0.0051 -0.534529,0.0063 -1.069173,0.0063 -1.603585,0.01912 -1.170521,0.02807 -1.427015,-0.0067 -2.55628,0.02623 -0.350222,0.0102 -0.576313,0.02141 -0.818535,0.037 -0.05299,0.0034 -0.703327,0.02951 -0.755642,0.03863 -0.04753,0.01217 0.02132,0.9695 0.10953,1.278116 0.420599,0.04646 0.854141,0.02203 1.225353,0.03987 z"
       sodipodi:nodetypes="cscsscsssscsssccc" />
    <circle
       id="path343"
       style="fill:#ffffff;stroke:#000000;stroke-width:0.264583"
       cx="5.8790727"
       cy="5.0099926"
       r="0.0021694519" />
    <circle
       id="path345"
       style="fill:#ffffff;stroke:#000000;stroke-width:0.264583"
       cx="6.8503981"
       cy="6.3902969"
       r="0.0021694519" />
    <path
       style="fill:#ffffff;stroke-width:0.607999;stroke-linejoin:round"
       id="path347"
       d="M 8.5065221,5.1754334 C 8.6986985,5.131384 8.5945336,5.158979 8.81783,5.0882902 8.8562827,5.0643666 8.517955,4.5205616 8.479502,4.5444852 v 0 c -0.2140381,0.09594 -0.1146458,0.04681 -0.2993085,0.1450787 -0.034356,0.023074 0.2919724,0.5089443 0.3263286,0.4858695 z" />
    <path
       style="fill:#ffffff;stroke-width:0.607999;stroke-linejoin:round"
       id="path349"
       d="M 5.8585884,8.818659 C 5.92967,8.7784246 6.0007519,8.7381902 6.0718336,8.6979558 6.1057489,8.6649752 5.6393351,8.1853377 5.6054194,8.2183183 v 0 c -0.064341,0.056273 -0.1286819,0.1125466 -0.1930228,0.1688201 -0.030513,0.03155 0.4156787,0.4630711 0.4461918,0.4315206 z" />
    <path
       style="fill:#ffffff;stroke-width:0.607999;stroke-linejoin:round"
       id="path351"
       d="m 7.8735614,13.303183 c 0.253165,-0.168932 0.1169418,-0.0743 0.4065466,-0.28694 0.032614,-0.03627 -0.4803622,-0.4975 -0.5129761,-0.461227 v 0 c -0.2727018,0.260371 -0.151689,0.132081 -0.3678232,0.380299 -0.026011,0.03353 0.4482404,0.401402 0.4742527,0.367868 z" />
    <path
       style="fill:#ffffff;stroke-width:0.607999;stroke-linejoin:round"
       id="path353"
       d="m 11.926693,8.4097866 c 0.06166,-0.042603 0.123312,-0.085206 0.184969,-0.1278094 0.031,-0.034371 -0.455074,-0.4728149 -0.486076,-0.4384442 v 0 c -0.04978,0.0507 -0.09955,0.1014005 -0.14933,0.1521008 -0.02928,0.031851 0.421152,0.4460036 0.450437,0.4141528 z" />
    <path
       style="fill:#ffffff;stroke-width:0.607999;stroke-linejoin:round"
       id="path355"
       d="m 14.721803,4.4885012 c 0.07479,-0.1905561 0.03539,-0.084725 0.115602,-0.3184459 0.01,-0.044621 -0.621071,-0.1854665 -0.63103,-0.1408459 v 0 c -0.04746,0.2440596 -0.02822,0.130868 -0.06,0.3391792 -0.0085,0.040689 0.566933,0.1608016 0.575426,0.1201126 z" />
    <path
       style="fill:#ffffff;stroke-width:0.607999;stroke-linejoin:round"
       id="path359"
       d="m 24.966924,28.025817 c 0.06823,-0.0096 0.136455,-0.01908 0.204683,-0.02862 0.04052,-0.01931 -0.232726,-0.592347 -0.273245,-0.573024 v 0 c -0.04531,0.01712 -0.09062,0.03421 -0.135936,0.05132 -0.03891,0.01447 0.165584,0.56478 0.204498,0.550318 z" />
    <path
       style="fill:#ffffff;stroke-width:0.607999;stroke-linejoin:round"
       id="path361"
       d="m 28.483793,25.554102 c 0.216662,-0.389101 0.10605,-0.164275 0.311608,-0.68406 0.01278,-0.05169 -0.718238,-0.232522 -0.731025,-0.180831 v 0 c -0.09047,0.473124 -0.04799,0.267202 -0.12341,0.618586 -0.01741,0.03838 0.525412,0.28469 0.542827,0.246305 z" />
    <path
       style="fill:#ffffff;stroke-width:0.607999;stroke-linejoin:round"
       id="path363"
       d="m 28.852396,19.760655 c -0.0053,-0.07364 -0.01066,-0.147276 -0.01601,-0.220914 -0.007,-0.04612 -0.659275,0.05267 -0.65229,0.09879 v 0 c 0.02185,0.07671 0.04372,0.15342 0.06558,0.23013 0.0076,0.04262 0.610356,-0.06539 0.602721,-0.108007 z" />
    <path
       style="fill:#ffffff;stroke-width:0.607999;stroke-linejoin:round"
       id="path375"
       d="m 18.661413,27.018662 c 0.02669,-0.06171 0.05338,-0.12342 0.08007,-0.185129 0.01,-0.04489 -0.624851,-0.185687 -0.634807,-0.1408 v 0 c -0.009,0.07261 -0.01804,0.145229 -0.02706,0.217847 -0.0076,0.04114 0.574157,0.149222 0.5818,0.108082 z" />
    <path
       style="fill:#ffffff;stroke-width:0.607999;stroke-linejoin:round"
       id="path377"
       d="m 22.087263,23.857664 c 0.351736,-0.208521 0.155575,-0.08631 0.58356,-0.374422 0.03608,-0.0385 -0.508425,-0.548766 -0.544506,-0.510264 v 0 c -0.361514,0.34328 -0.202272,0.185242 -0.481509,0.470272 -0.0293,0.03129 0.413151,0.445701 0.442455,0.414414 z" />
  </g>
</svg>
