<?xml version="1.0" encoding="UTF-8" standalone="no"?>
<!-- Created with Inkscape (http://www.inkscape.org/) -->

<svg
   width="100"
   height="100"
   viewBox="0 0 26.458333 26.458333"
   version="1.1"
   id="svg42046"
   inkscape:version="1.2.2 (b0a84865, 2022-12-01)"
   sodipodi:docname="galvanized-gz.svg"
   xmlns:inkscape="http://www.inkscape.org/namespaces/inkscape"
   xmlns:sodipodi="http://sodipodi.sourceforge.net/DTD/sodipodi-0.dtd"
   xmlns="http://www.w3.org/2000/svg"
   xmlns:svg="http://www.w3.org/2000/svg">
  <sodipodi:namedview
     id="namedview42048"
     pagecolor="#ffffff"
     bordercolor="#000000"
     borderopacity="0.25"
     inkscape:showpageshadow="2"
     inkscape:pageopacity="0.0"
     inkscape:pagecheckerboard="0"
     inkscape:deskcolor="#d1d1d1"
     inkscape:document-units="mm"
     showgrid="false"
     inkscape:zoom="4.6513897"
     inkscape:cx="43.965355"
     inkscape:cy="54.392347"
     inkscape:window-width="1310"
     inkscape:window-height="808"
     inkscape:window-x="2917"
     inkscape:window-y="251"
     inkscape:window-maximized="0"
     inkscape:current-layer="layer1" />
  <defs
     id="defs42043">
    <filter
       style="color-interpolation-filters:sRGB"
       inkscape:label="Drop Shadow"
       id="filter10147"
       x="-0.065488468"
       y="-0.03582962"
       width="1.1855507"
       height="1.1015173">
      <feFlood
         flood-opacity="0.498039"
         flood-color="rgb(0,0,0)"
         result="flood"
         id="feFlood10137" />
      <feComposite
         in="flood"
         in2="SourceGraphic"
         operator="out"
         result="composite1"
         id="feComposite10139" />
      <feGaussianBlur
         in="composite1"
         stdDeviation="3"
         result="blur"
         id="feGaussianBlur10141" />
      <feOffset
         dx="6"
         dy="6"
         result="offset"
         id="feOffset10143" />
      <feComposite
         in="offset"
         in2="SourceGraphic"
         operator="atop"
         result="composite2"
         id="feComposite10145" />
    </filter>
  </defs>
  <g
     inkscape:label="Layer 1"
     inkscape:groupmode="layer"
     id="layer1">
    <g
       id="g2731"
       transform="matrix(0.1,0,0,0.1,-0.82068348,0.38180981)"
       style="fill:#ff6600;fill-opacity:1;filter:url(#filter10147)">
      <path
         style="fill:#ff6600;fill-opacity:1;stroke-width:0.252149;stroke-linejoin:round;stroke-opacity:0.204819"
         id="path2692"
         d="m 88.97486,160.08604 c 0.958398,-0.4293 1.879893,-0.93824 2.875177,-1.28787 4.822057,-1.69393 9.877563,-2.84709 14.922843,-3.77348 11.28317,-2.07178 22.65372,-2.89325 34.10004,-3.69937 4.40477,-0.19401 13.36527,-0.66212 18.06828,-0.61474 1.96544,0.0198 4.01211,-0.22927 5.8866,0.31943 0.94198,0.27574 2.3457,2.86898 2.03437,1.99919 -7.49177,-20.93033 -4.11317,-22.33609 -11.55254,-12.22163 -2.20554,2.21215 -4.32752,4.49865 -6.61665,6.63644 -8.20239,7.66011 -17.21121,14.50731 -26.1869,21.35742 -18.60379,14.19816 2.02863,-1.64136 -14.29347,10.90719 -5.71045,4.33263 -11.279531,8.87566 -15.49568,14.53135 -4.668266,7.31985 -2.144807,2.93159 5.396737,23.18331 0.261933,0.7035 1.605808,0.0189 2.406233,-0.03 0.99547,-0.0607 1.98418,-0.19479 2.97555,-0.29824 8.56552,-0.89384 3.41074,-0.54231 13.7844,-0.8122 18.88491,0.27485 37.53628,3.15621 56.0643,6.30527 6.38327,1.08179 12.75891,2.19956 19.12586,3.36098 l -5.05465,-20.48717 v 0 c -6.15165,-0.0618 -12.29741,-0.34786 -18.43324,-0.76164 -18.73315,-1.37431 -37.42899,-3.12775 -56.02326,-5.68331 -6.97303,-1.11442 -8.33657,-1.18926 -14.618436,-2.64206 -0.932264,-0.21561 -1.653147,-0.45748 -2.49572,-0.8859 -0.230047,-0.11697 -0.479579,-0.83208 -0.41789,-0.5955 5.554856,21.29687 5.312136,22.41256 5.452306,20.18275 2.39124,-7.21564 7.81767,-13.09703 13.1222,-18.64485 2.03944,-1.98225 4.02432,-4.01409 6.11832,-5.94674 12.74447,-11.76235 26.95274,-22.02654 41.50084,-31.77982 11.54586,-7.7822 8.0396,-3.16484 0.71011,-26.78548 -0.23615,-0.76108 -1.70678,0.10848 -2.54627,0.25165 -15.26845,2.60393 6.3203,-0.5107 -13.38803,2.43001 -3.218,0.48015 -6.45017,0.87479 -9.67524,1.3122 -9.10451,0.93983 -13.73312,1.51588 -22.96234,2.059 -10.39679,0.61184 -20.820467,0.66145 -31.231721,0.45207 l 6.447826,21.66167 z"
         sodipodi:nodetypes="csscssscssccscsccccsccsscccccssscsccc" />
      <path
         style="fill:#ff6600;fill-opacity:1;stroke-width:0.226161;stroke-linejoin:round;stroke-opacity:0.204819"
         id="path2696"
         d="m 140.4506,24.998034 c -2.5382,0.373321 -5.13599,0.270477 -7.6413,0.849954 -2.96538,0.685891 -3.70393,1.166539 -6.57092,2.3889 -8.00194,3.776212 -15.11356,8.771318 -21.84383,14.092119 -4.984807,4.185213 -9.47735,8.910431 -12.349565,14.471025 -0.646194,1.251044 -1.153981,2.554078 -1.730981,3.831117 -2.188822,5.995051 -3.700577,12.238757 -3.536098,18.567839 0.576653,22.189172 -1.796651,14.863877 2.678044,25.944792 0.885034,1.42114 1.650587,2.90534 2.655094,4.26343 2.984089,4.0344 7.045311,7.75314 11.538256,10.49797 4.17278,2.54924 5.42921,2.7193 10.14105,4.3871 8.43532,2.16263 17.26115,4.18658 26.13456,3.40603 1.63075,-0.14345 3.23297,-0.47557 4.84945,-0.71335 6.09686,-1.36406 12.2157,-3.12378 17.61286,-6.04407 3.3953,-1.83712 3.74011,-2.35788 6.60908,-4.72487 3.83331,-3.76966 6.54365,-8.19256 8.19164,-13.03094 0.9635,-2.82873 1.19555,-4.389605 1.79109,-7.266205 1.26552,-8.973561 0.66614,-18.174646 0.25157,-27.137003 -0.0613,-1.32217 -1.12125,-3.443952 -1.91246,-4.560398 -0.42432,-0.598745 -0.9879,-1.111505 -1.48186,-1.667258 -0.63038,-0.406087 -1.20668,-0.887049 -1.89114,-1.218268 -3.21266,-1.554606 -7.18094,-1.701607 -10.70332,-1.118347 -1.09952,0.182065 -2.16668,0.492217 -3.25002,0.738322 -3.40059,1.005879 -6.64925,2.351378 -9.79638,3.858837 -1.75848,0.8423 -3.64315,1.777763 -5.21317,2.890276 -0.73074,0.5178 -1.37188,1.126725 -2.05784,1.690091 l 1.68868,18.474661 v 0 c 0.5799,-0.593438 1.10753,-1.229877 1.73969,-1.780329 3.74291,-3.259084 9.18704,-5.463331 14.12275,-6.879826 0.98394,-0.187029 1.95516,-0.436861 2.95181,-0.561082 3.06466,-0.381979 6.46762,-0.08138 9.04106,1.571085 0.49739,0.3194 0.89234,0.747097 1.33852,1.120646 1.06041,1.457868 1.30783,1.575728 1.86803,3.339044 0.22848,0.719148 0.44925,2.944318 0.49,2.198382 0.27663,-5.063643 0.0981,-10.138915 0.22066,-15.207269 0.0261,-1.081372 -0.25386,2.163125 -0.28959,3.244283 -0.0387,1.171153 0.16371,2.337028 0.0664,3.50554 -0.48007,2.923731 -0.63493,4.418445 -1.4739,7.294091 -1.37442,4.710994 -3.74211,9.104356 -7.26084,12.870352 -0.92701,0.86361 -1.78381,1.790215 -2.78102,2.590815 -4.34992,3.49234 -10.01489,5.87271 -15.57398,7.44685 -1.5194,0.43024 -3.08344,0.72676 -4.62516,1.09015 -4.13751,0.61856 -5.06526,0.90457 -9.27581,0.94588 -7.01264,0.0689 -14.00004,-1.13436 -20.61899,-3.10967 -4.4481,-1.75355 -5.65336,-1.97607 -9.57958,-4.50835 -4.29185,-2.76811 -8.082417,-6.361255 -10.76997,-10.412939 -0.903775,-1.362505 -1.560275,-2.841166 -2.340416,-4.261754 -2.951203,-8.894393 -1.841506,-4.921651 -2.999015,7.232711 -0.151713,1.59303 0.718629,-2.936427 0.819082,-4.532603 0.281038,-4.46628 1.552949,-8.868468 3.000544,-13.131284 1.383175,-3.229964 1.530686,-3.934146 3.397476,-6.918517 2.591669,-4.143246 6.139799,-7.743218 9.809819,-11.163466 6.30537,-5.39051 13.1053,-10.461219 21.18425,-13.67007 1.0787,-0.363571 2.13265,-0.790267 3.23611,-1.090718 3.29296,-0.896622 6.77119,-0.815553 10.13959,-0.36386 V 24.998034 Z"
         sodipodi:nodetypes="ssccscsccscscscsccsccscssccsccsscsscscsccscccsscsccsccsccs" />
    </g>
    <rect
       style="fill:#00002b;fill-opacity:0.980609;fill-rule:evenodd;stroke-width:0.278;stroke-linejoin:round;stroke-opacity:0.204819"
       id="rect42330"
       width="2.3321884"
       height="4.1524329"
       x="-6.0295601"
       y="8.7030439"
       ry="0" />
  </g>
</svg>
