<?xml version="1.0" encoding="UTF-8" standalone="no"?>
<!-- Created with Inkscape (http://www.inkscape.org/) -->

<svg
   width="1000"
   height="1000"
   viewBox="0 0 264.58333 264.58333"
   version="1.1"
   id="svg2143"
   inkscape:version="1.2.2 (b0a84865, 2022-12-01)"
   sodipodi:docname="galvanized5.svg"
   inkscape:export-filename="../galvanized5.png"
   inkscape:export-xdpi="96"
   inkscape:export-ydpi="96"
   xmlns:inkscape="http://www.inkscape.org/namespaces/inkscape"
   xmlns:sodipodi="http://sodipodi.sourceforge.net/DTD/sodipodi-0.dtd"
   xmlns:xlink="http://www.w3.org/1999/xlink"
   xmlns="http://www.w3.org/2000/svg"
   xmlns:svg="http://www.w3.org/2000/svg">
  <sodipodi:namedview
     id="namedview2145"
     pagecolor="#ffffff"
     bordercolor="#000000"
     borderopacity="0.25"
     inkscape:showpageshadow="2"
     inkscape:pageopacity="0.0"
     inkscape:pagecheckerboard="0"
     inkscape:deskcolor="#d1d1d1"
     inkscape:document-units="mm"
     showgrid="false"
     inkscape:zoom="0.4128646"
     inkscape:cx="639.43482"
     inkscape:cy="323.35056"
     inkscape:window-width="1512"
     inkscape:window-height="867"
     inkscape:window-x="2636"
     inkscape:window-y="99"
     inkscape:window-maximized="0"
     inkscape:current-layer="g55667" />
  <defs
     id="defs2140">
    <linearGradient
       inkscape:collect="always"
       id="linearGradient58016">
      <stop
         style="stop-color:#000000;stop-opacity:1;"
         offset="0"
         id="stop58012" />
      <stop
         style="stop-color:#ff6600;stop-opacity:1;"
         offset="1"
         id="stop58014" />
    </linearGradient>
    <linearGradient
       inkscape:collect="always"
       id="linearGradient12729">
      <stop
         style="stop-color:#000000;stop-opacity:1;"
         offset="0"
         id="stop12725" />
      <stop
         style="stop-color:#ffffff;stop-opacity:0.98000002;"
         offset="1"
         id="stop12727" />
    </linearGradient>
    <linearGradient
       id="linearGradient12683"
       inkscape:swatch="solid">
      <stop
         style="stop-color:#000000;stop-opacity:1;"
         offset="0"
         id="stop12681" />
    </linearGradient>
    <linearGradient
       id="linearGradient12576"
       inkscape:swatch="solid">
      <stop
         style="stop-color:#000000;stop-opacity:1;"
         offset="0"
         id="stop12574" />
    </linearGradient>
    <meshgradient
       inkscape:collect="always"
       id="meshgradient9388"
       gradientUnits="userSpaceOnUse"
       x="-21.194307"
       y="-8.6075163"
       gradientTransform="matrix(0.1018035,0,0,0.08191457,-58.838658,-6.5865316)">
      <meshrow
         id="meshrow10524">
        <meshpatch
           id="meshpatch10526">
          <stop
             path="c 83.5441,-83.5441  218.996,-83.5441  302.54,0"
             style="stop-color:#ffffff;stop-opacity:1"
             id="stop10528" />
          <stop
             path="c 83.5441,83.5441  -253.808,244.831  0,302.54"
             style="stop-color:#000000;stop-opacity:1"
             id="stop10530" />
          <stop
             path="c -83.5441,83.5441  -218.996,83.5441  -302.54,0"
             style="stop-color:#ffffff;stop-opacity:1"
             id="stop10532" />
          <stop
             path="c -83.5441,-83.5441  211.422,-270.153  0,-302.54"
             style="stop-color:#000000;stop-opacity:1"
             id="stop10534" />
        </meshpatch>
      </meshrow>
    </meshgradient>
    <filter
       style="color-interpolation-filters:sRGB"
       inkscape:label="Drop Shadow"
       id="filter10147"
       x="-0.065488468"
       y="-0.03582962"
       width="1.1855507"
       height="1.1015173">
      <feFlood
         flood-opacity="0.498039"
         flood-color="rgb(0,0,0)"
         result="flood"
         id="feFlood10137" />
      <feComposite
         in="flood"
         in2="SourceGraphic"
         operator="out"
         result="composite1"
         id="feComposite10139" />
      <feGaussianBlur
         in="composite1"
         stdDeviation="3"
         result="blur"
         id="feGaussianBlur10141" />
      <feOffset
         dx="6"
         dy="6"
         result="offset"
         id="feOffset10143" />
      <feComposite
         in="offset"
         in2="SourceGraphic"
         operator="atop"
         result="composite2"
         id="feComposite10145" />
    </filter>
    <linearGradient
       inkscape:collect="always"
       xlink:href="#linearGradient12729"
       id="linearGradient12737"
       x1="58.581936"
       y1="222.71237"
       x2="465.40823"
       y2="-516.12384"
       gradientUnits="userSpaceOnUse"
       gradientTransform="matrix(0.10044544,0,0,0.10254679,-0.06121226,-0.28746555)" />
    <linearGradient
       inkscape:collect="always"
       xlink:href="#linearGradient58016"
       id="linearGradient58009"
       gradientUnits="userSpaceOnUse"
       gradientTransform="matrix(0.10772638,0,0,0.10998005,-27.482909,-27.725563)"
       x1="58.581936"
       y1="222.71237"
       x2="226.52008"
       y2="-52.962498" />
  </defs>
  <g
     inkscape:label="Layer 1"
     inkscape:groupmode="layer"
     id="layer1">
    <ellipse
       style="fill:url(#meshgradient9388);fill-opacity:1;stroke-width:0.0253867;stroke-linejoin:round;stroke-opacity:0.204819"
       id="path6139"
       cy="5.0996013"
       cx="-45.596497"
       rx="22.292746"
       ry="17.523821" />
    <path
       style="fill:#ff6600;fill-opacity:0.914127;stroke-width:0.0352568;stroke-linejoin:round;stroke-opacity:0.204819"
       id="path2680"
       d="m -92.653714,52.487719 c -0.762102,-0.30456 -1.5214,-0.475704 -2.328822,-0.609647 -1.49668,-0.191199 -3.054588,-0.09733 -4.538359,-0.01484 -0.19466,0.01082 -0.37918,0.09289 -0.563895,0.155234 -0.5175,0.17465 -0.65547,0.272214 -1.14281,0.527931 -0.81463,0.466075 -1.51141,1.104689 -2.10583,1.827472 -0.3939,0.478961 -0.57319,0.769308 -0.92163,1.283231 -0.63624,1.03726 -1.24929,2.270502 -1.25165,3.51849 -5.1e-4,0.245455 0.0465,0.488701 0.0697,0.733055 0.0766,0.241189 0.1196,0.495753 0.22977,0.723573 0.58944,1.218859 1.8492,1.988186 3.07718,2.429144 0.40818,0.14657 0.83303,0.241743 1.24954,0.362612 1.180305,0.278903 2.38779,0.453424 3.602645,0.452289 1.262121,-0.0013 3.083151,0.115072 4.501004,-0.190187 0.256594,-0.05522 0.504046,-0.14663 0.756066,-0.219948 0.200991,-0.09706 0.4133,-0.17354 0.602972,-0.291189 0.494938,-0.307015 0.839828,-0.759211 0.85761,-1.359412 0.01489,-0.502284 -0.137228,-0.765902 -0.309272,-1.228562 -0.422849,-0.815501 -1.039543,-1.49925 -1.839279,-1.959001 -0.494698,-0.284388 -0.615687,-0.290722 -1.151811,-0.45884 -1.647764,-0.245448 -0.898302,-0.163914 -4.073057,-0.07288 -0.220516,0.0063 -0.815163,0.171101 -1.036353,0.228011 0,0 2.992537,0.399794 2.992537,0.399794 v 0 c 0.150395,-0.03564 0.299135,-0.07918 0.451187,-0.106923 0.171924,-0.03137 0.694039,-0.06021 0.519565,-0.07021 -0.586513,-0.03363 -3.628861,-0.0872 -1.762422,0.0038 0.196977,0.04581 0.398215,0.0761 0.590932,0.137417 0.811783,0.258272 1.557005,0.764989 2.063641,1.454007 0.125102,0.170134 0.217304,0.362164 0.325959,0.543249 0.133068,0.407991 0.254471,0.630891 0.220803,1.062907 -0.03799,0.487586 -0.355233,0.852842 -0.755852,1.100261 -0.16329,0.100849 -0.344809,0.168659 -0.517214,0.252988 -0.220729,0.06517 -0.437392,0.146216 -0.662188,0.195602 -0.265695,0.05836 -1.070426,0.06243 -0.80616,0.126985 0.506878,0.123813 1.045419,0.0027 1.564256,0.05816 0.389248,0.04153 -0.783437,0.006 -1.174247,-0.01663 -1.156131,-0.06651 -1.355352,-0.143478 -2.494425,-0.360828 -0.385172,-0.113463 -0.778222,-0.203007 -1.155522,-0.340389 -1.121985,-0.408532 -2.259735,-1.101296 -2.788515,-2.220761 -0.0993,-0.210165 -0.14345,-0.442173 -0.21518,-0.663263 -0.0232,-0.225991 -0.0681,-0.4508 -0.0696,-0.677973 -0.008,-1.20669 0.58141,-2.36994 1.18816,-3.375169 0.37625,-0.528892 0.51648,-0.757828 0.94931,-1.240584 0.619315,-0.69075 1.346425,-1.279779 2.165953,-1.716209 0.488735,-0.220415 0.660545,-0.323265 1.175632,-0.458298 0.191161,-0.05011 0.778628,-0.09723 0.581744,-0.114246 -0.79601,-0.0688 -1.597826,-0.023 -2.396564,-0.04262 -0.17171,-0.0042 0.343705,-0.01168 0.515275,-0.0036 0.167496,0.0079 0.333604,0.0343 0.500407,0.05144 0.691123,0.09937 1.42701,0.189795 2.030309,0.568502 0,0 3.278527,-0.383987 3.278527,-0.383987 z" />
    <g
       id="g55667"
       transform="matrix(9.9999998,0,0,9.9999998,4.5776367e-5,4.5776367e-5)">
      <rect
         style="fill:url(#linearGradient58009);fill-opacity:1;fill-rule:evenodd;stroke-width:0.0302596;stroke-linejoin:round;stroke-opacity:0.204819"
         id="rect12665-1"
         width="26.548964"
         height="26.548964"
         x="-26.503645"
         y="-26.503645"
         ry="2.1373138"
         transform="scale(-1)" />
      <rect
         style="fill:url(#linearGradient12737);fill-opacity:1;fill-rule:evenodd;stroke-width:0.0282144;stroke-linejoin:round;stroke-opacity:0.204819"
         id="rect12665"
         width="24.754589"
         height="24.754589"
         x="0.85186696"
         y="0.85186696"
         ry="1.9928585" />
      <g
         id="g2731"
         transform="matrix(0.1,0,0,0.1,-0.82068806,0.38180523)"
         style="fill:#ff6600;fill-opacity:1;filter:url(#filter10147)">
        <path
           style="fill:#ff6600;fill-opacity:1;stroke-width:0.252149;stroke-linejoin:round;stroke-opacity:0.204819"
           id="path2692"
           d="m 88.97486,160.08604 c 0.958398,-0.4293 1.879893,-0.93824 2.875177,-1.28787 4.822057,-1.69393 9.877563,-2.84709 14.922843,-3.77348 11.28317,-2.07178 22.65372,-2.89325 34.10004,-3.69937 4.40477,-0.19401 13.36527,-0.66212 18.06828,-0.61474 1.96544,0.0198 4.01211,-0.22927 5.8866,0.31943 0.94198,0.27574 2.3457,2.86898 2.03437,1.99919 -7.49177,-20.93033 -4.11317,-22.33609 -11.55254,-12.22163 -2.20554,2.21215 -4.32752,4.49865 -6.61665,6.63644 -8.20239,7.66011 -17.21121,14.50731 -26.1869,21.35742 -18.60379,14.19816 2.02863,-1.64136 -14.29347,10.90719 -5.71045,4.33263 -11.279531,8.87566 -15.49568,14.53135 -4.668266,7.31985 -2.144807,2.93159 5.396737,23.18331 0.261933,0.7035 1.605808,0.0189 2.406233,-0.03 0.99547,-0.0607 1.98418,-0.19479 2.97555,-0.29824 8.56552,-0.89384 3.41074,-0.54231 13.7844,-0.8122 18.88491,0.27485 37.53628,3.15621 56.0643,6.30527 6.38327,1.08179 12.75891,2.19956 19.12586,3.36098 l -5.05465,-20.48717 v 0 c -6.15165,-0.0618 -12.29741,-0.34786 -18.43324,-0.76164 -18.73315,-1.37431 -37.42899,-3.12775 -56.02326,-5.68331 -6.97303,-1.11442 -8.33657,-1.18926 -14.618436,-2.64206 -0.932264,-0.21561 -1.653147,-0.45748 -2.49572,-0.8859 -0.230047,-0.11697 -0.479579,-0.83208 -0.41789,-0.5955 5.554856,21.29687 5.312136,22.41256 5.452306,20.18275 2.39124,-7.21564 7.81767,-13.09703 13.1222,-18.64485 2.03944,-1.98225 4.02432,-4.01409 6.11832,-5.94674 12.74447,-11.76235 26.95274,-22.02654 41.50084,-31.77982 11.54586,-7.7822 8.0396,-3.16484 0.71011,-26.78548 -0.23615,-0.76108 -1.70678,0.10848 -2.54627,0.25165 -15.26845,2.60393 6.3203,-0.5107 -13.38803,2.43001 -3.218,0.48015 -6.45017,0.87479 -9.67524,1.3122 -9.10451,0.93983 -13.73312,1.51588 -22.96234,2.059 -10.39679,0.61184 -20.820467,0.66145 -31.231721,0.45207 l 6.447826,21.66167 z"
           sodipodi:nodetypes="csscssscssccscsccccsccsscccccssscsccc" />
        <path
           style="fill:#ff6600;fill-opacity:1;stroke-width:0.226161;stroke-linejoin:round;stroke-opacity:0.204819"
           id="path2696"
           d="m 140.4506,24.998034 c -2.5382,0.373321 -5.13599,0.270477 -7.6413,0.849954 -2.96538,0.685891 -3.70393,1.166539 -6.57092,2.3889 -8.00194,3.776212 -15.11356,8.771318 -21.84383,14.092119 -4.984807,4.185213 -9.47735,8.910431 -12.349565,14.471025 -0.646194,1.251044 -1.153981,2.554078 -1.730981,3.831117 -2.188822,5.995051 -3.700577,12.238757 -3.536098,18.567839 0.576653,22.189172 -1.796651,14.863877 2.678044,25.944792 0.885034,1.42114 1.650587,2.90534 2.655094,4.26343 2.984089,4.0344 7.045311,7.75314 11.538256,10.49797 4.17278,2.54924 5.42921,2.7193 10.14105,4.3871 8.43532,2.16263 17.26115,4.18658 26.13456,3.40603 1.63075,-0.14345 3.23297,-0.47557 4.84945,-0.71335 6.09686,-1.36406 12.2157,-3.12378 17.61286,-6.04407 3.3953,-1.83712 3.74011,-2.35788 6.60908,-4.72487 3.83331,-3.76966 6.54365,-8.19256 8.19164,-13.03094 0.9635,-2.82873 1.19555,-4.389605 1.79109,-7.266205 1.26552,-8.973561 0.66614,-18.174646 0.25157,-27.137003 -0.0613,-1.32217 -1.12125,-3.443952 -1.91246,-4.560398 -0.42432,-0.598745 -0.9879,-1.111505 -1.48186,-1.667258 -0.63038,-0.406087 -1.20668,-0.887049 -1.89114,-1.218268 -3.21266,-1.554606 -7.18094,-1.701607 -10.70332,-1.118347 -1.09952,0.182065 -2.16668,0.492217 -3.25002,0.738322 -3.40059,1.005879 -6.64925,2.351378 -9.79638,3.858837 -1.75848,0.8423 -3.64315,1.777763 -5.21317,2.890276 -0.73074,0.5178 -1.37188,1.126725 -2.05784,1.690091 l 1.68868,18.474661 v 0 c 0.5799,-0.593438 1.10753,-1.229877 1.73969,-1.780329 3.74291,-3.259084 9.18704,-5.463331 14.12275,-6.879826 0.98394,-0.187029 1.95516,-0.436861 2.95181,-0.561082 3.06466,-0.381979 6.46762,-0.08138 9.04106,1.571085 0.49739,0.3194 0.89234,0.747097 1.33852,1.120646 1.06041,1.457868 1.30783,1.575728 1.86803,3.339044 0.22848,0.719148 0.44925,2.944318 0.49,2.198382 0.27663,-5.063643 0.0981,-10.138915 0.22066,-15.207269 0.0261,-1.081372 -0.25386,2.163125 -0.28959,3.244283 -0.0387,1.171153 0.16371,2.337028 0.0664,3.50554 -0.48007,2.923731 -0.63493,4.418445 -1.4739,7.294091 -1.37442,4.710994 -3.74211,9.104356 -7.26084,12.870352 -0.92701,0.86361 -1.78381,1.790215 -2.78102,2.590815 -4.34992,3.49234 -10.01489,5.87271 -15.57398,7.44685 -1.5194,0.43024 -3.08344,0.72676 -4.62516,1.09015 -4.13751,0.61856 -5.06526,0.90457 -9.27581,0.94588 -7.01264,0.0689 -14.00004,-1.13436 -20.61899,-3.10967 -4.4481,-1.75355 -5.65336,-1.97607 -9.57958,-4.50835 -4.29185,-2.76811 -8.082417,-6.361255 -10.76997,-10.412939 -0.903775,-1.362505 -1.560275,-2.841166 -2.340416,-4.261754 -2.951203,-8.894393 -1.841506,-4.921651 -2.999015,7.232711 -0.151713,1.59303 0.718629,-2.936427 0.819082,-4.532603 0.281038,-4.46628 1.552949,-8.868468 3.000544,-13.131284 1.383175,-3.229964 1.530686,-3.934146 3.397476,-6.918517 2.591669,-4.143246 6.139799,-7.743218 9.809819,-11.163466 6.30537,-5.39051 13.1053,-10.461219 21.18425,-13.67007 1.0787,-0.363571 2.13265,-0.790267 3.23611,-1.090718 3.29296,-0.896622 6.77119,-0.815553 10.13959,-0.36386 V 24.998034 Z"
           sodipodi:nodetypes="ssccscsccscscscsccsccscssccsccsscsscscsccscccsscsccsccsccs" />
      </g>
    </g>
    <rect
       style="fill:#000000;fill-opacity:1;fill-rule:evenodd;stroke-width:0.278;stroke-linejoin:round;stroke-opacity:0.204819"
       id="rect45147"
       width="3.1153908"
       height="3.0021038"
       x="-10.195825"
       y="8.609807" />
    <g
       id="g2727"
       transform="matrix(0.12682292,0,0,0.12682292,-27.614653,17.729523)">
      <path
         style="fill:#ff6600;fill-opacity:0.914127;stroke-width:0.252149;stroke-linejoin:round;stroke-opacity:0.204819"
         id="path2692-9"
         d="m -202.58539,358.26158 c 0.9584,-0.4293 1.87989,-0.93824 2.87518,-1.28787 4.82205,-1.69393 9.87756,-2.84709 14.92284,-3.77348 11.28317,-2.07178 22.65372,-2.89325 34.10004,-3.69937 4.40477,-0.19401 13.36527,-0.66212 18.06828,-0.61474 1.96544,0.0198 4.01211,-0.22927 5.8866,0.31943 0.94198,0.27574 2.3457,2.86898 2.03437,1.99919 -7.49177,-20.93033 -4.11317,-22.33609 -11.55254,-12.22163 -2.20554,2.21215 -4.32752,4.49865 -6.61665,6.63644 -8.20239,7.66011 -17.21121,14.50731 -26.1869,21.35742 -18.60379,14.19816 2.02863,-1.64136 -14.29347,10.90719 -5.71045,4.33263 -11.27953,8.87566 -15.49568,14.53135 -4.66827,7.31985 -2.14481,2.93159 5.39674,23.18331 0.26193,0.7035 1.6058,0.0189 2.40623,-0.03 0.99547,-0.0607 1.98418,-0.19479 2.97555,-0.29824 8.56552,-0.89384 3.41074,-0.54231 13.7844,-0.8122 18.88491,0.27485 37.53628,3.15621 56.0643,6.30527 6.38327,1.08179 12.75891,2.19956 19.12586,3.36098 l -5.05465,-20.48717 v 0 c -6.15165,-0.0618 -12.29741,-0.34786 -18.43324,-0.76164 -18.73315,-1.37431 -37.42899,-3.12775 -56.02326,-5.68331 -6.97303,-1.11442 -8.33657,-1.18926 -14.61844,-2.64206 -0.93226,-0.21561 -1.65314,-0.45748 -2.49572,-0.8859 -0.23004,-0.11697 -0.47958,-0.83208 -0.41789,-0.5955 5.55486,21.29687 5.31214,22.41256 5.45231,20.18275 2.39124,-7.21564 7.81767,-13.09703 13.1222,-18.64485 2.03944,-1.98225 4.02432,-4.01409 6.11832,-5.94674 12.74447,-11.76235 26.95274,-22.02654 41.50084,-31.77982 11.54586,-7.7822 8.0396,-3.16484 0.71011,-26.78548 -0.23615,-0.76108 -1.70678,0.10848 -2.54627,0.25165 -15.26845,2.60393 6.3203,-0.5107 -13.38803,2.43001 -3.218,0.48015 -6.45017,0.87479 -9.67524,1.3122 -9.10451,0.93983 -13.73312,1.51588 -22.96234,2.059 -10.39679,0.61184 -20.82047,0.66145 -31.23172,0.45207 l 6.44782,21.66167 z"
         sodipodi:nodetypes="csscssscssccscsccccsccsscccccssscsccc" />
      <path
         style="fill:#ff6600;fill-opacity:0.914127;stroke-width:0.226161;stroke-linejoin:round;stroke-opacity:0.204819"
         id="path2696-4"
         d="m -151.10965,223.17357 c -2.5382,0.37332 -5.13599,0.27048 -7.6413,0.84996 -2.96538,0.68589 -3.70393,1.16654 -6.57092,2.3889 -8.00194,3.77621 -15.11356,8.77132 -21.84383,14.09212 -4.98481,4.18521 -9.47735,8.91043 -12.34956,14.47102 -0.6462,1.25105 -1.15399,2.55408 -1.73099,3.83112 -2.18882,5.99505 -3.70057,12.23876 -3.53609,18.56784 0.57665,22.18917 -1.79665,14.86387 2.67804,25.94479 0.88503,1.42114 1.65059,2.90534 2.65509,4.26343 2.98409,4.0344 7.04532,7.75314 11.53826,10.49797 4.17278,2.54924 5.42921,2.7193 10.14105,4.3871 8.43532,2.16263 17.26115,4.18658 26.13456,3.40603 1.63075,-0.14345 3.23297,-0.47557 4.84945,-0.71335 6.09686,-1.36406 12.2157,-3.12378 17.61286,-6.04407 3.3953,-1.83712 3.74011,-2.35788 6.60908,-4.72487 3.83331,-3.76966 6.54365,-8.19256 8.19164,-13.03094 0.9635,-2.82873 1.19555,-4.38961 1.79109,-7.2662 1.26552,-8.97357 0.66614,-18.17465 0.25157,-27.13701 -0.0613,-1.32217 -1.12125,-3.44395 -1.91246,-4.5604 -0.42432,-0.59874 -0.9879,-1.1115 -1.48186,-1.66725 -0.63038,-0.40609 -1.20668,-0.88705 -1.89114,-1.21827 -3.21266,-1.55461 -7.18094,-1.70161 -10.70332,-1.11835 -1.09952,0.18207 -2.16668,0.49222 -3.25002,0.73832 -3.40059,1.00588 -6.64925,2.35138 -9.79638,3.85884 -1.75848,0.8423 -3.64315,1.77776 -5.21317,2.89028 -0.73074,0.5178 -1.37188,1.12672 -2.05784,1.69009 l 1.68868,18.47466 v 0 c 0.5799,-0.59344 1.10753,-1.22988 1.73969,-1.78033 3.74291,-3.25909 9.18704,-5.46333 14.12275,-6.87983 0.98394,-0.18703 1.95516,-0.43686 2.95181,-0.56108 3.06466,-0.38198 6.46762,-0.0814 9.04106,1.57109 0.49739,0.3194 0.89234,0.74709 1.33852,1.12064 1.06041,1.45787 1.30783,1.57573 1.86803,3.33905 0.22848,0.71914 0.44925,2.94431 0.49,2.19838 0.27663,-5.06365 0.0981,-10.13892 0.22066,-15.20727 0.0261,-1.08137 -0.25386,2.16312 -0.28959,3.24428 -0.0387,1.17115 0.16371,2.33703 0.0664,3.50554 -0.48007,2.92373 -0.63493,4.41845 -1.4739,7.29409 -1.37442,4.711 -3.74211,9.10436 -7.26084,12.87035 -0.92701,0.86361 -1.78381,1.79022 -2.78102,2.59082 -4.34992,3.49234 -10.01489,5.87271 -15.57398,7.44685 -1.5194,0.43024 -3.08344,0.72676 -4.62516,1.09015 -4.13751,0.61856 -5.06526,0.90457 -9.27581,0.94588 -7.01264,0.0689 -14.00004,-1.13436 -20.61899,-3.10967 -4.4481,-1.75355 -5.65336,-1.97607 -9.57958,-4.50835 -4.29185,-2.76811 -8.08242,-6.36126 -10.76997,-10.41294 -0.90378,-1.3625 -1.56028,-2.84117 -2.34042,-4.26175 -2.9512,-8.8944 -1.8415,-4.92165 -2.99901,7.23271 -0.15171,1.59303 0.71863,-2.93643 0.81908,-4.53261 0.28104,-4.46628 1.55295,-8.86846 3.00054,-13.13128 1.38318,-3.22996 1.53069,-3.93415 3.39748,-6.91852 2.59167,-4.14324 6.1398,-7.74321 9.80982,-11.16346 6.30537,-5.39051 13.1053,-10.46122 21.18425,-13.67007 1.0787,-0.36357 2.13265,-0.79027 3.23611,-1.09072 3.29296,-0.89662 6.77119,-0.81555 10.13959,-0.36386 v -19.72985 z"
         sodipodi:nodetypes="ssccscsccscscscsccsccscssccsccsscsscscsccscccsscsccsccsccs" />
    </g>
  </g>
  <script
     id="mesh_polyfill"
     type="text/javascript">
!function(){const t=&quot;http://www.w3.org/2000/svg&quot;,e=&quot;http://www.w3.org/1999/xlink&quot;,s=&quot;http://www.w3.org/1999/xhtml&quot;,r=2;if(document.createElementNS(t,&quot;meshgradient&quot;).x)return;const n=(t,e,s,r)=&gt;{let n=new x(.5*(e.x+s.x),.5*(e.y+s.y)),o=new x(.5*(t.x+e.x),.5*(t.y+e.y)),i=new x(.5*(s.x+r.x),.5*(s.y+r.y)),a=new x(.5*(n.x+o.x),.5*(n.y+o.y)),h=new x(.5*(n.x+i.x),.5*(n.y+i.y)),l=new x(.5*(a.x+h.x),.5*(a.y+h.y));return[[t,o,a,l],[l,h,i,r]]},o=t=&gt;{let e=t[0].distSquared(t[1]),s=t[2].distSquared(t[3]),r=.25*t[0].distSquared(t[2]),n=.25*t[1].distSquared(t[3]),o=e&gt;s?e:s,i=r&gt;n?r:n;return 18*(o&gt;i?o:i)},i=(t,e)=&gt;Math.sqrt(t.distSquared(e)),a=(t,e)=&gt;t.scale(2/3).add(e.scale(1/3)),h=t=&gt;{let e,s,r,n,o,i,a,h=new g;return t.match(/(\w+\(\s*[^)]+\))+/g).forEach(t=&gt;{let l=t.match(/[\w.-]+/g),d=l.shift();switch(d){case&quot;translate&quot;:2===l.length?e=new g(1,0,0,1,l[0],l[1]):(console.error(&quot;mesh.js: translate does not have 2 arguments!&quot;),e=new g(1,0,0,1,0,0)),h=h.append(e);break;case&quot;scale&quot;:1===l.length?s=new g(l[0],0,0,l[0],0,0):2===l.length?s=new g(l[0],0,0,l[1],0,0):(console.error(&quot;mesh.js: scale does not have 1 or 2 arguments!&quot;),s=new g(1,0,0,1,0,0)),h=h.append(s);break;case&quot;rotate&quot;:if(3===l.length&amp;&amp;(e=new g(1,0,0,1,l[1],l[2]),h=h.append(e)),l[0]){r=l[0]*Math.PI/180;let t=Math.cos(r),e=Math.sin(r);Math.abs(t)&lt;1e-16&amp;&amp;(t=0),Math.abs(e)&lt;1e-16&amp;&amp;(e=0),a=new g(t,e,-e,t,0,0),h=h.append(a)}else console.error(&quot;math.js: No argument to rotate transform!&quot;);3===l.length&amp;&amp;(e=new g(1,0,0,1,-l[1],-l[2]),h=h.append(e));break;case&quot;skewX&quot;:l[0]?(r=l[0]*Math.PI/180,n=Math.tan(r),o=new g(1,0,n,1,0,0),h=h.append(o)):console.error(&quot;math.js: No argument to skewX transform!&quot;);break;case&quot;skewY&quot;:l[0]?(r=l[0]*Math.PI/180,n=Math.tan(r),i=new g(1,n,0,1,0,0),h=h.append(i)):console.error(&quot;math.js: No argument to skewY transform!&quot;);break;case&quot;matrix&quot;:6===l.length?h=h.append(new g(...l)):console.error(&quot;math.js: Incorrect number of arguments for matrix!&quot;);break;default:console.error(&quot;mesh.js: Unhandled transform type: &quot;+d)}}),h},l=t=&gt;{let e=[],s=t.split(/[ ,]+/);for(let t=0,r=s.length-1;t&lt;r;t+=2)e.push(new x(parseFloat(s[t]),parseFloat(s[t+1])));return e},d=(t,e)=&gt;{for(let s in e)t.setAttribute(s,e[s])},c=(t,e,s,r,n)=&gt;{let o,i,a=[0,0,0,0];for(let h=0;h&lt;3;++h)e[h]&lt;t[h]&amp;&amp;e[h]&lt;s[h]||t[h]&lt;e[h]&amp;&amp;s[h]&lt;e[h]?a[h]=0:(a[h]=.5*((e[h]-t[h])/r+(s[h]-e[h])/n),o=Math.abs(3*(e[h]-t[h])/r),i=Math.abs(3*(s[h]-e[h])/n),a[h]&gt;o?a[h]=o:a[h]&gt;i&amp;&amp;(a[h]=i));return a},u=[[1,0,0,0,0,0,0,0,0,0,0,0,0,0,0,0],[0,0,0,0,1,0,0,0,0,0,0,0,0,0,0,0],[-3,3,0,0,-2,-1,0,0,0,0,0,0,0,0,0,0],[2,-2,0,0,1,1,0,0,0,0,0,0,0,0,0,0],[0,0,0,0,0,0,0,0,1,0,0,0,0,0,0,0],[0,0,0,0,0,0,0,0,0,0,0,0,1,0,0,0],[0,0,0,0,0,0,0,0,-3,3,0,0,-2,-1,0,0],[0,0,0,0,0,0,0,0,2,-2,0,0,1,1,0,0],[-3,0,3,0,0,0,0,0,-2,0,-1,0,0,0,0,0],[0,0,0,0,-3,0,3,0,0,0,0,0,-2,0,-1,0],[9,-9,-9,9,6,3,-6,-3,6,-6,3,-3,4,2,2,1],[-6,6,6,-6,-3,-3,3,3,-4,4,-2,2,-2,-2,-1,-1],[2,0,-2,0,0,0,0,0,1,0,1,0,0,0,0,0],[0,0,0,0,2,0,-2,0,0,0,0,0,1,0,1,0],[-6,6,6,-6,-4,-2,4,2,-3,3,-3,3,-2,-1,-2,-1],[4,-4,-4,4,2,2,-2,-2,2,-2,2,-2,1,1,1,1]],f=t=&gt;{let e=[];for(let s=0;s&lt;16;++s){e[s]=0;for(let r=0;r&lt;16;++r)e[s]+=u[s][r]*t[r]}return e},p=(t,e,s)=&gt;{const r=e*e,n=s*s,o=e*e*e,i=s*s*s;return t[0]+t[1]*e+t[2]*r+t[3]*o+t[4]*s+t[5]*s*e+t[6]*s*r+t[7]*s*o+t[8]*n+t[9]*n*e+t[10]*n*r+t[11]*n*o+t[12]*i+t[13]*i*e+t[14]*i*r+t[15]*i*o},y=t=&gt;{let e=[],s=[],r=[];for(let s=0;s&lt;4;++s)e[s]=[],e[s][0]=n(t[0][s],t[1][s],t[2][s],t[3][s]),e[s][1]=[],e[s][1].push(...n(...e[s][0][0])),e[s][1].push(...n(...e[s][0][1])),e[s][2]=[],e[s][2].push(...n(...e[s][1][0])),e[s][2].push(...n(...e[s][1][1])),e[s][2].push(...n(...e[s][1][2])),e[s][2].push(...n(...e[s][1][3]));for(let t=0;t&lt;8;++t){s[t]=[];for(let r=0;r&lt;4;++r)s[t][r]=[],s[t][r][0]=n(e[0][2][t][r],e[1][2][t][r],e[2][2][t][r],e[3][2][t][r]),s[t][r][1]=[],s[t][r][1].push(...n(...s[t][r][0][0])),s[t][r][1].push(...n(...s[t][r][0][1])),s[t][r][2]=[],s[t][r][2].push(...n(...s[t][r][1][0])),s[t][r][2].push(...n(...s[t][r][1][1])),s[t][r][2].push(...n(...s[t][r][1][2])),s[t][r][2].push(...n(...s[t][r][1][3]))}for(let t=0;t&lt;8;++t){r[t]=[];for(let e=0;e&lt;8;++e)r[t][e]=[],r[t][e][0]=s[t][0][2][e],r[t][e][1]=s[t][1][2][e],r[t][e][2]=s[t][2][2][e],r[t][e][3]=s[t][3][2][e]}return r};class x{constructor(t,e){this.x=t||0,this.y=e||0}toString(){return`(x=${this.x}, y=${this.y})`}clone(){return new x(this.x,this.y)}add(t){return new x(this.x+t.x,this.y+t.y)}scale(t){return void 0===t.x?new x(this.x*t,this.y*t):new x(this.x*t.x,this.y*t.y)}distSquared(t){let e=this.x-t.x,s=this.y-t.y;return e*e+s*s}transform(t){let e=this.x*t.a+this.y*t.c+t.e,s=this.x*t.b+this.y*t.d+t.f;return new x(e,s)}}class g{constructor(t,e,s,r,n,o){void 0===t?(this.a=1,this.b=0,this.c=0,this.d=1,this.e=0,this.f=0):(this.a=t,this.b=e,this.c=s,this.d=r,this.e=n,this.f=o)}toString(){return`affine: ${this.a} ${this.c} ${this.e} \n       ${this.b} ${this.d} ${this.f}`}append(t){t instanceof g||console.error(&quot;mesh.js: argument to Affine.append is not affine!&quot;);let e=this.a*t.a+this.c*t.b,s=this.b*t.a+this.d*t.b,r=this.a*t.c+this.c*t.d,n=this.b*t.c+this.d*t.d,o=this.a*t.e+this.c*t.f+this.e,i=this.b*t.e+this.d*t.f+this.f;return new g(e,s,r,n,o,i)}}class w{constructor(t,e){this.nodes=t,this.colors=e}paintCurve(t,e){if(o(this.nodes)&gt;r){const s=n(...this.nodes);let r=[[],[]],o=[[],[]];for(let t=0;t&lt;4;++t)r[0][t]=this.colors[0][t],r[1][t]=(this.colors[0][t]+this.colors[1][t])/2,o[0][t]=r[1][t],o[1][t]=this.colors[1][t];let i=new w(s[0],r),a=new w(s[1],o);i.paintCurve(t,e),a.paintCurve(t,e)}else{let s=Math.round(this.nodes[0].x);if(s&gt;=0&amp;&amp;s&lt;e){let r=4*(~~this.nodes[0].y*e+s);t[r]=Math.round(this.colors[0][0]),t[r+1]=Math.round(this.colors[0][1]),t[r+2]=Math.round(this.colors[0][2]),t[r+3]=Math.round(this.colors[0][3])}}}}class m{constructor(t,e){this.nodes=t,this.colors=e}split(){let t=[[],[],[],[]],e=[[],[],[],[]],s=[[[],[]],[[],[]]],r=[[[],[]],[[],[]]];for(let s=0;s&lt;4;++s){const r=n(this.nodes[0][s],this.nodes[1][s],this.nodes[2][s],this.nodes[3][s]);t[0][s]=r[0][0],t[1][s]=r[0][1],t[2][s]=r[0][2],t[3][s]=r[0][3],e[0][s]=r[1][0],e[1][s]=r[1][1],e[2][s]=r[1][2],e[3][s]=r[1][3]}for(let t=0;t&lt;4;++t)s[0][0][t]=this.colors[0][0][t],s[0][1][t]=this.colors[0][1][t],s[1][0][t]=(this.colors[0][0][t]+this.colors[1][0][t])/2,s[1][1][t]=(this.colors[0][1][t]+this.colors[1][1][t])/2,r[0][0][t]=s[1][0][t],r[0][1][t]=s[1][1][t],r[1][0][t]=this.colors[1][0][t],r[1][1][t]=this.colors[1][1][t];return[new m(t,s),new m(e,r)]}paint(t,e){let s,n=!1;for(let t=0;t&lt;4;++t)if((s=o([this.nodes[0][t],this.nodes[1][t],this.nodes[2][t],this.nodes[3][t]]))&gt;r){n=!0;break}if(n){let s=this.split();s[0].paint(t,e),s[1].paint(t,e)}else{new w([...this.nodes[0]],[...this.colors[0]]).paintCurve(t,e)}}}class b{constructor(t){this.readMesh(t),this.type=t.getAttribute(&quot;type&quot;)||&quot;bilinear&quot;}readMesh(t){let e=[[]],s=[[]],r=Number(t.getAttribute(&quot;x&quot;)),n=Number(t.getAttribute(&quot;y&quot;));e[0][0]=new x(r,n);let o=t.children;for(let t=0,r=o.length;t&lt;r;++t){e[3*t+1]=[],e[3*t+2]=[],e[3*t+3]=[],s[t+1]=[];let r=o[t].children;for(let n=0,o=r.length;n&lt;o;++n){let o=r[n].children;for(let r=0,i=o.length;r&lt;i;++r){let i=r;0!==t&amp;&amp;++i;let h,d=o[r].getAttribute(&quot;path&quot;),c=&quot;l&quot;;null!=d&amp;&amp;(c=(h=d.match(/\s*([lLcC])\s*(.*)/))[1]);let u=l(h[2]);switch(c){case&quot;l&quot;:0===i?(e[3*t][3*n+3]=u[0].add(e[3*t][3*n]),e[3*t][3*n+1]=a(e[3*t][3*n],e[3*t][3*n+3]),e[3*t][3*n+2]=a(e[3*t][3*n+3],e[3*t][3*n])):1===i?(e[3*t+3][3*n+3]=u[0].add(e[3*t][3*n+3]),e[3*t+1][3*n+3]=a(e[3*t][3*n+3],e[3*t+3][3*n+3]),e[3*t+2][3*n+3]=a(e[3*t+3][3*n+3],e[3*t][3*n+3])):2===i?(0===n&amp;&amp;(e[3*t+3][3*n+0]=u[0].add(e[3*t+3][3*n+3])),e[3*t+3][3*n+1]=a(e[3*t+3][3*n],e[3*t+3][3*n+3]),e[3*t+3][3*n+2]=a(e[3*t+3][3*n+3],e[3*t+3][3*n])):(e[3*t+1][3*n]=a(e[3*t][3*n],e[3*t+3][3*n]),e[3*t+2][3*n]=a(e[3*t+3][3*n],e[3*t][3*n]));break;case&quot;L&quot;:0===i?(e[3*t][3*n+3]=u[0],e[3*t][3*n+1]=a(e[3*t][3*n],e[3*t][3*n+3]),e[3*t][3*n+2]=a(e[3*t][3*n+3],e[3*t][3*n])):1===i?(e[3*t+3][3*n+3]=u[0],e[3*t+1][3*n+3]=a(e[3*t][3*n+3],e[3*t+3][3*n+3]),e[3*t+2][3*n+3]=a(e[3*t+3][3*n+3],e[3*t][3*n+3])):2===i?(0===n&amp;&amp;(e[3*t+3][3*n+0]=u[0]),e[3*t+3][3*n+1]=a(e[3*t+3][3*n],e[3*t+3][3*n+3]),e[3*t+3][3*n+2]=a(e[3*t+3][3*n+3],e[3*t+3][3*n])):(e[3*t+1][3*n]=a(e[3*t][3*n],e[3*t+3][3*n]),e[3*t+2][3*n]=a(e[3*t+3][3*n],e[3*t][3*n]));break;case&quot;c&quot;:0===i?(e[3*t][3*n+1]=u[0].add(e[3*t][3*n]),e[3*t][3*n+2]=u[1].add(e[3*t][3*n]),e[3*t][3*n+3]=u[2].add(e[3*t][3*n])):1===i?(e[3*t+1][3*n+3]=u[0].add(e[3*t][3*n+3]),e[3*t+2][3*n+3]=u[1].add(e[3*t][3*n+3]),e[3*t+3][3*n+3]=u[2].add(e[3*t][3*n+3])):2===i?(e[3*t+3][3*n+2]=u[0].add(e[3*t+3][3*n+3]),e[3*t+3][3*n+1]=u[1].add(e[3*t+3][3*n+3]),0===n&amp;&amp;(e[3*t+3][3*n+0]=u[2].add(e[3*t+3][3*n+3]))):(e[3*t+2][3*n]=u[0].add(e[3*t+3][3*n]),e[3*t+1][3*n]=u[1].add(e[3*t+3][3*n]));break;case&quot;C&quot;:0===i?(e[3*t][3*n+1]=u[0],e[3*t][3*n+2]=u[1],e[3*t][3*n+3]=u[2]):1===i?(e[3*t+1][3*n+3]=u[0],e[3*t+2][3*n+3]=u[1],e[3*t+3][3*n+3]=u[2]):2===i?(e[3*t+3][3*n+2]=u[0],e[3*t+3][3*n+1]=u[1],0===n&amp;&amp;(e[3*t+3][3*n+0]=u[2])):(e[3*t+2][3*n]=u[0],e[3*t+1][3*n]=u[1]);break;default:console.error(&quot;mesh.js: &quot;+c+&quot; invalid path type.&quot;)}if(0===t&amp;&amp;0===n||r&gt;0){let e=window.getComputedStyle(o[r]).stopColor.match(/^rgb\s*\(\s*(\d+)\s*,\s*(\d+)\s*,\s*(\d+)\s*\)$/i),a=window.getComputedStyle(o[r]).stopOpacity,h=255;a&amp;&amp;(h=Math.floor(255*a)),e&amp;&amp;(0===i?(s[t][n]=[],s[t][n][0]=Math.floor(e[1]),s[t][n][1]=Math.floor(e[2]),s[t][n][2]=Math.floor(e[3]),s[t][n][3]=h):1===i?(s[t][n+1]=[],s[t][n+1][0]=Math.floor(e[1]),s[t][n+1][1]=Math.floor(e[2]),s[t][n+1][2]=Math.floor(e[3]),s[t][n+1][3]=h):2===i?(s[t+1][n+1]=[],s[t+1][n+1][0]=Math.floor(e[1]),s[t+1][n+1][1]=Math.floor(e[2]),s[t+1][n+1][2]=Math.floor(e[3]),s[t+1][n+1][3]=h):3===i&amp;&amp;(s[t+1][n]=[],s[t+1][n][0]=Math.floor(e[1]),s[t+1][n][1]=Math.floor(e[2]),s[t+1][n][2]=Math.floor(e[3]),s[t+1][n][3]=h))}}e[3*t+1][3*n+1]=new x,e[3*t+1][3*n+2]=new x,e[3*t+2][3*n+1]=new x,e[3*t+2][3*n+2]=new x,e[3*t+1][3*n+1].x=(-4*e[3*t][3*n].x+6*(e[3*t][3*n+1].x+e[3*t+1][3*n].x)+-2*(e[3*t][3*n+3].x+e[3*t+3][3*n].x)+3*(e[3*t+3][3*n+1].x+e[3*t+1][3*n+3].x)+-1*e[3*t+3][3*n+3].x)/9,e[3*t+1][3*n+2].x=(-4*e[3*t][3*n+3].x+6*(e[3*t][3*n+2].x+e[3*t+1][3*n+3].x)+-2*(e[3*t][3*n].x+e[3*t+3][3*n+3].x)+3*(e[3*t+3][3*n+2].x+e[3*t+1][3*n].x)+-1*e[3*t+3][3*n].x)/9,e[3*t+2][3*n+1].x=(-4*e[3*t+3][3*n].x+6*(e[3*t+3][3*n+1].x+e[3*t+2][3*n].x)+-2*(e[3*t+3][3*n+3].x+e[3*t][3*n].x)+3*(e[3*t][3*n+1].x+e[3*t+2][3*n+3].x)+-1*e[3*t][3*n+3].x)/9,e[3*t+2][3*n+2].x=(-4*e[3*t+3][3*n+3].x+6*(e[3*t+3][3*n+2].x+e[3*t+2][3*n+3].x)+-2*(e[3*t+3][3*n].x+e[3*t][3*n+3].x)+3*(e[3*t][3*n+2].x+e[3*t+2][3*n].x)+-1*e[3*t][3*n].x)/9,e[3*t+1][3*n+1].y=(-4*e[3*t][3*n].y+6*(e[3*t][3*n+1].y+e[3*t+1][3*n].y)+-2*(e[3*t][3*n+3].y+e[3*t+3][3*n].y)+3*(e[3*t+3][3*n+1].y+e[3*t+1][3*n+3].y)+-1*e[3*t+3][3*n+3].y)/9,e[3*t+1][3*n+2].y=(-4*e[3*t][3*n+3].y+6*(e[3*t][3*n+2].y+e[3*t+1][3*n+3].y)+-2*(e[3*t][3*n].y+e[3*t+3][3*n+3].y)+3*(e[3*t+3][3*n+2].y+e[3*t+1][3*n].y)+-1*e[3*t+3][3*n].y)/9,e[3*t+2][3*n+1].y=(-4*e[3*t+3][3*n].y+6*(e[3*t+3][3*n+1].y+e[3*t+2][3*n].y)+-2*(e[3*t+3][3*n+3].y+e[3*t][3*n].y)+3*(e[3*t][3*n+1].y+e[3*t+2][3*n+3].y)+-1*e[3*t][3*n+3].y)/9,e[3*t+2][3*n+2].y=(-4*e[3*t+3][3*n+3].y+6*(e[3*t+3][3*n+2].y+e[3*t+2][3*n+3].y)+-2*(e[3*t+3][3*n].y+e[3*t][3*n+3].y)+3*(e[3*t][3*n+2].y+e[3*t+2][3*n].y)+-1*e[3*t][3*n].y)/9}}this.nodes=e,this.colors=s}paintMesh(t,e){let s=(this.nodes.length-1)/3,r=(this.nodes[0].length-1)/3;if(&quot;bilinear&quot;===this.type||s&lt;2||r&lt;2){let n;for(let o=0;o&lt;s;++o)for(let s=0;s&lt;r;++s){let r=[];for(let t=3*o,e=3*o+4;t&lt;e;++t)r.push(this.nodes[t].slice(3*s,3*s+4));let i=[];i.push(this.colors[o].slice(s,s+2)),i.push(this.colors[o+1].slice(s,s+2)),(n=new m(r,i)).paint(t,e)}}else{let n,o,a,h,l,d,u;const x=s,g=r;s++,r++;let w=new Array(s);for(let t=0;t&lt;s;++t){w[t]=new Array(r);for(let e=0;e&lt;r;++e)w[t][e]=[],w[t][e][0]=this.nodes[3*t][3*e],w[t][e][1]=this.colors[t][e]}for(let t=0;t&lt;s;++t)for(let e=0;e&lt;r;++e)0!==t&amp;&amp;t!==x&amp;&amp;(n=i(w[t-1][e][0],w[t][e][0]),o=i(w[t+1][e][0],w[t][e][0]),w[t][e][2]=c(w[t-1][e][1],w[t][e][1],w[t+1][e][1],n,o)),0!==e&amp;&amp;e!==g&amp;&amp;(n=i(w[t][e-1][0],w[t][e][0]),o=i(w[t][e+1][0],w[t][e][0]),w[t][e][3]=c(w[t][e-1][1],w[t][e][1],w[t][e+1][1],n,o));for(let t=0;t&lt;r;++t){w[0][t][2]=[],w[x][t][2]=[];for(let e=0;e&lt;4;++e)n=i(w[1][t][0],w[0][t][0]),o=i(w[x][t][0],w[x-1][t][0]),w[0][t][2][e]=n&gt;0?2*(w[1][t][1][e]-w[0][t][1][e])/n-w[1][t][2][e]:0,w[x][t][2][e]=o&gt;0?2*(w[x][t][1][e]-w[x-1][t][1][e])/o-w[x-1][t][2][e]:0}for(let t=0;t&lt;s;++t){w[t][0][3]=[],w[t][g][3]=[];for(let e=0;e&lt;4;++e)n=i(w[t][1][0],w[t][0][0]),o=i(w[t][g][0],w[t][g-1][0]),w[t][0][3][e]=n&gt;0?2*(w[t][1][1][e]-w[t][0][1][e])/n-w[t][1][3][e]:0,w[t][g][3][e]=o&gt;0?2*(w[t][g][1][e]-w[t][g-1][1][e])/o-w[t][g-1][3][e]:0}for(let s=0;s&lt;x;++s)for(let r=0;r&lt;g;++r){let n=i(w[s][r][0],w[s+1][r][0]),o=i(w[s][r+1][0],w[s+1][r+1][0]),c=i(w[s][r][0],w[s][r+1][0]),x=i(w[s+1][r][0],w[s+1][r+1][0]),g=[[],[],[],[]];for(let t=0;t&lt;4;++t){(d=[])[0]=w[s][r][1][t],d[1]=w[s+1][r][1][t],d[2]=w[s][r+1][1][t],d[3]=w[s+1][r+1][1][t],d[4]=w[s][r][2][t]*n,d[5]=w[s+1][r][2][t]*n,d[6]=w[s][r+1][2][t]*o,d[7]=w[s+1][r+1][2][t]*o,d[8]=w[s][r][3][t]*c,d[9]=w[s+1][r][3][t]*x,d[10]=w[s][r+1][3][t]*c,d[11]=w[s+1][r+1][3][t]*x,d[12]=0,d[13]=0,d[14]=0,d[15]=0,u=f(d);for(let e=0;e&lt;9;++e){g[t][e]=[];for(let s=0;s&lt;9;++s)g[t][e][s]=p(u,e/8,s/8),g[t][e][s]&gt;255?g[t][e][s]=255:g[t][e][s]&lt;0&amp;&amp;(g[t][e][s]=0)}}h=[];for(let t=3*s,e=3*s+4;t&lt;e;++t)h.push(this.nodes[t].slice(3*r,3*r+4));l=y(h);for(let s=0;s&lt;8;++s)for(let r=0;r&lt;8;++r)(a=new m(l[s][r],[[[g[0][s][r],g[1][s][r],g[2][s][r],g[3][s][r]],[g[0][s][r+1],g[1][s][r+1],g[2][s][r+1],g[3][s][r+1]]],[[g[0][s+1][r],g[1][s+1][r],g[2][s+1][r],g[3][s+1][r]],[g[0][s+1][r+1],g[1][s+1][r+1],g[2][s+1][r+1],g[3][s+1][r+1]]]])).paint(t,e)}}}transform(t){if(t instanceof x)for(let e=0,s=this.nodes.length;e&lt;s;++e)for(let s=0,r=this.nodes[0].length;s&lt;r;++s)this.nodes[e][s]=this.nodes[e][s].add(t);else if(t instanceof g)for(let e=0,s=this.nodes.length;e&lt;s;++e)for(let s=0,r=this.nodes[0].length;s&lt;r;++s)this.nodes[e][s]=this.nodes[e][s].transform(t)}scale(t){for(let e=0,s=this.nodes.length;e&lt;s;++e)for(let s=0,r=this.nodes[0].length;s&lt;r;++s)this.nodes[e][s]=this.nodes[e][s].scale(t)}}document.querySelectorAll(&quot;rect,circle,ellipse,path,text&quot;).forEach((r,n)=&gt;{let o=r.getAttribute(&quot;id&quot;);o||(o=&quot;patchjs_shape&quot;+n,r.setAttribute(&quot;id&quot;,o));const i=r.style.fill.match(/^url\(\s*&quot;?\s*#([^\s&quot;]+)&quot;?\s*\)/),a=r.style.stroke.match(/^url\(\s*&quot;?\s*#([^\s&quot;]+)&quot;?\s*\)/);if(i&amp;&amp;i[1]){const a=document.getElementById(i[1]);if(a&amp;&amp;&quot;meshgradient&quot;===a.nodeName){const i=r.getBBox();let l=document.createElementNS(s,&quot;canvas&quot;);d(l,{width:i.width,height:i.height});const c=l.getContext(&quot;2d&quot;);let u=c.createImageData(i.width,i.height);const f=new b(a);&quot;objectBoundingBox&quot;===a.getAttribute(&quot;gradientUnits&quot;)&amp;&amp;f.scale(new x(i.width,i.height));const p=a.getAttribute(&quot;gradientTransform&quot;);null!=p&amp;&amp;f.transform(h(p)),&quot;userSpaceOnUse&quot;===a.getAttribute(&quot;gradientUnits&quot;)&amp;&amp;f.transform(new x(-i.x,-i.y)),f.paintMesh(u.data,l.width),c.putImageData(u,0,0);const y=document.createElementNS(t,&quot;image&quot;);d(y,{width:i.width,height:i.height,x:i.x,y:i.y});let g=l.toDataURL();y.setAttributeNS(e,&quot;xlink:href&quot;,g),r.parentNode.insertBefore(y,r),r.style.fill=&quot;none&quot;;const w=document.createElementNS(t,&quot;use&quot;);w.setAttributeNS(e,&quot;xlink:href&quot;,&quot;#&quot;+o);const m=&quot;patchjs_clip&quot;+n,M=document.createElementNS(t,&quot;clipPath&quot;);M.setAttribute(&quot;id&quot;,m),M.appendChild(w),r.parentElement.insertBefore(M,r),y.setAttribute(&quot;clip-path&quot;,&quot;url(#&quot;+m+&quot;)&quot;),u=null,l=null,g=null}}if(a&amp;&amp;a[1]){const o=document.getElementById(a[1]);if(o&amp;&amp;&quot;meshgradient&quot;===o.nodeName){const i=parseFloat(r.style.strokeWidth.slice(0,-2))*(parseFloat(r.style.strokeMiterlimit)||parseFloat(r.getAttribute(&quot;stroke-miterlimit&quot;))||1),a=r.getBBox(),l=Math.trunc(a.width+i),c=Math.trunc(a.height+i),u=Math.trunc(a.x-i/2),f=Math.trunc(a.y-i/2);let p=document.createElementNS(s,&quot;canvas&quot;);d(p,{width:l,height:c});const y=p.getContext(&quot;2d&quot;);let g=y.createImageData(l,c);const w=new b(o);&quot;objectBoundingBox&quot;===o.getAttribute(&quot;gradientUnits&quot;)&amp;&amp;w.scale(new x(l,c));const m=o.getAttribute(&quot;gradientTransform&quot;);null!=m&amp;&amp;w.transform(h(m)),&quot;userSpaceOnUse&quot;===o.getAttribute(&quot;gradientUnits&quot;)&amp;&amp;w.transform(new x(-u,-f)),w.paintMesh(g.data,p.width),y.putImageData(g,0,0);const M=document.createElementNS(t,&quot;image&quot;);d(M,{width:l,height:c,x:0,y:0});let S=p.toDataURL();M.setAttributeNS(e,&quot;xlink:href&quot;,S);const k=&quot;pattern_clip&quot;+n,A=document.createElementNS(t,&quot;pattern&quot;);d(A,{id:k,patternUnits:&quot;userSpaceOnUse&quot;,width:l,height:c,x:u,y:f}),A.appendChild(M),o.parentNode.appendChild(A),r.style.stroke=&quot;url(#&quot;+k+&quot;)&quot;,g=null,p=null,S=null}}})}();
</script>
</svg>
