<?xml version="1.0" encoding="UTF-8" standalone="no"?>
<!-- Created with Inkscape (http://www.inkscape.org/) -->

<svg
   width="264.58334mm"
   height="264.58334mm"
   viewBox="0 0 264.58334 264.58334"
   version="1.1"
   id="svg4355"
   sodipodi:docname="tagged.svg"
   inkscape:export-filename="tagged.png"
   inkscape:export-xdpi="133.19066"
   inkscape:export-ydpi="133.19066"
   inkscape:version="1.2.2 (b0a84865, 2022-12-01)"
   xmlns:inkscape="http://www.inkscape.org/namespaces/inkscape"
   xmlns:sodipodi="http://sodipodi.sourceforge.net/DTD/sodipodi-0.dtd"
   xmlns:xlink="http://www.w3.org/1999/xlink"
   xmlns="http://www.w3.org/2000/svg"
   xmlns:svg="http://www.w3.org/2000/svg">
  <sodipodi:namedview
     id="namedview4357"
     pagecolor="#ffffff"
     bordercolor="#000000"
     borderopacity="0.25"
     inkscape:showpageshadow="2"
     inkscape:pageopacity="0.0"
     inkscape:pagecheckerboard="0"
     inkscape:deskcolor="#d1d1d1"
     inkscape:document-units="mm"
     showgrid="false"
     inkscape:zoom="0.64693624"
     inkscape:cx="500.82215"
     inkscape:cy="351.65753"
     inkscape:window-width="1390"
     inkscape:window-height="1205"
     inkscape:window-x="0"
     inkscape:window-y="25"
     inkscape:window-maximized="0"
     inkscape:current-layer="layer1" />
  <defs
     id="defs4352">
    <linearGradient
       inkscape:collect="always"
       id="linearGradient9324">
      <stop
         style="stop-color:#7b05f4;stop-opacity:0;"
         offset="0"
         id="stop9318" />
      <stop
         style="stop-color:#4072f4;stop-opacity:0.49803922;"
         offset="0.26129779"
         id="stop9320" />
      <stop
         style="stop-color:#05dff4;stop-opacity:1;"
         offset="1"
         id="stop9322" />
    </linearGradient>
    <radialGradient
       inkscape:collect="always"
       xlink:href="#linearGradient9324"
       id="radialGradient5818-3-1-1"
       cx="108.30912"
       cy="88.210442"
       fx="108.30912"
       fy="88.210442"
       r="89.697357"
       gradientTransform="matrix(0.16626448,0.10208256,-0.05249994,0.09203832,92.309597,95.011575)"
       gradientUnits="userSpaceOnUse"
       spreadMethod="repeat" />
  </defs>
  <g
     inkscape:label="Layer 1"
     inkscape:groupmode="layer"
     id="layer1"
     transform="translate(-11.091109,-7.7771074)">
    <g
       id="g13571"
       transform="matrix(3.6696637,0,0,3.950656,-239.72368,-308.93269)">
      <rect
         style="fill:url(#radialGradient5818-3-1-1);fill-opacity:1;stroke:none;stroke-width:0.293573;stroke-linejoin:round"
         id="rect4624-0-9-5"
         width="72.100159"
         height="66.972"
         x="68.348167"
         y="80.166382"
         ry="10.162204" />
      <g
         id="g4510-1-5-4"
         transform="matrix(3.0459225,0,0,3.0459225,-81.427822,-315.96546)">
        <path
           style="fill:#05df72;fill-opacity:1;stroke:#000000;stroke-width:0.670893;stroke-linejoin:round"
           id="path3044-7-3-1-0-4-3-9-9"
           d="m 59.101065,134.16961 c -0.0497,0.22117 -0.16298,0.41958 -0.2098,0.64267 -0.0428,0.20373 -0.0436,0.41542 -0.0942,0.61735 -0.12683,0.50618 -0.32863,0.90043 -0.54042,1.37465 -0.10934,0.22407 -0.21889,0.44807 -0.32802,0.67225 -0.26123,0.53665 -0.35588,0.71673 -0.58736,1.25928 -0.15447,0.36203 -0.31197,0.76851 -0.44332,1.14065 -0.0596,0.16875 -0.11344,0.33949 -0.17015,0.50924 -0.0489,0.30814 -0.16658,0.59947 -0.23184,0.90345 -0.0691,0.32197 -0.10497,0.67413 -0.0572,1.00237 0.012,0.0824 0.0385,0.16196 0.0577,0.24294 0.0352,0.0692 0.0615,0.14362 0.10556,0.20746 0.0452,0.0654 0.0915,0.1365 0.1599,0.17698 1.27072,0.75153 2.17249,1.81743 3.53826,1.88101 0.0967,0.004 0.19387,0.009 0.29026,0 0.10922,-0.01 0.21625,-0.0363 0.32438,-0.0545 0.11762,-0.019 0.23859,-0.0235 0.35288,-0.0573 0.12514,-0.037 0.24302,-0.0959 0.36019,-0.15335 0.1291,-0.0633 0.25686,-0.13044 0.37766,-0.20844 0.42855,-0.2767 0.79308,-0.6422 1.1616,-0.99066 0.42452,-0.41568 0.32801,-0.31736 0.73283,-0.72826 0.10226,-0.10377 0.21048,-0.20212 0.30584,-0.31229 0.0863,-0.0997 0.15812,-0.21108 0.23799,-0.31599 0.0671,-0.0881 0.1352,-0.17534 0.2028,-0.263 0,0 -2.95669,-1.69248 -2.95669,-1.69248 v 0 c -0.0316,0.0998 -0.0554,0.20243 -0.0948,0.29945 -0.0456,0.1125 -0.10334,0.21977 -0.15949,0.3274 -0.0625,0.11985 -0.12333,0.24111 -0.19643,0.35486 -0.23928,0.37227 -0.3117,0.41608 -0.6226,0.74279 -0.13787,0.10985 -0.26962,0.22788 -0.41362,0.32962 -0.37898,0.2677 -0.81682,0.49921 -1.26981,0.6119 -0.24639,0.0613 -0.48846,0.0709 -0.73928,0.0904 -0.27003,-0.0259 -0.41433,-0.0254 -0.66943,-0.10157 -0.092,-0.0275 -0.35038,-0.15468 -0.26835,-0.10478 0.93585,0.56944 1.89307,1.10308 2.83321,1.66542 0.0634,0.0379 -0.13961,-0.0515 -0.20174,-0.0914 -0.0654,-0.0419 -0.11795,-0.10104 -0.17692,-0.15158 -0.0524,-0.0705 -0.11407,-0.13494 -0.15706,-0.21151 -0.17238,-0.30705 -0.22252,-0.67222 -0.24011,-1.01748 -0.008,-0.15216 -0.0126,-0.30488 -0.005,-0.45701 0.009,-0.16889 0.0356,-0.33632 0.0534,-0.50448 0.027,-0.18042 0.048,-0.36188 0.081,-0.54129 0.0765,-0.41592 0.17303,-0.78973 0.29522,-1.19525 0.12501,-0.4149 0.29315,-0.9075 0.46268,-1.30498 0.0969,-0.22709 0.20985,-0.44694 0.31477,-0.67043 0.27436,-0.46143 0.43856,-0.81179 0.83122,-1.18676 0.14478,-0.13827 0.32337,-0.23617 0.48803,-0.35002 0.16189,-0.11194 0.27527,-0.19725 0.46051,-0.24789 0.0418,-0.0114 0.0862,-0.008 0.12935,-0.0124 0,0 -3.32383,-2.12821 -3.32383,-2.12821 z" />
        <path
           style="fill:#05dff4;fill-opacity:1;stroke:#000000;stroke-width:0.670893;stroke-linejoin:round"
           id="path3050-2-7-8-2-9-8-0-0"
           d="m 55.134845,138.31471 c 0.2057,-0.0481 0.41472,-0.0351 0.62404,-0.0286 0.61879,0.019 0.31354,-9e-5 1.03693,0.0874 0.24306,0.0414 0.48673,0.0793 0.72919,0.12409 0.61613,0.11367 1.03288,0.20751 1.64823,0.3406 0.85969,0.18592 1.71897,0.37224 2.58043,0.54986 1.02479,0.19571 2.04858,0.39756 3.07445,0.58756 1.17446,0.21748 0.0562,-0.003 1.13193,0.21322 0.33735,0.0669 0.66915,0.15788 1.00584,0.22765 0.13861,0.0287 0.24207,0.0445 0.3812,0.0341 0.0726,-0.0296 0.11705,-0.0879 0.16324,-0.14745 0,0 -3.41209,-2.03152 -3.41209,-2.03152 v 0 c 0.0189,-0.0244 0.0393,-0.0474 0.058,-0.0719 -0.0418,0.0212 -0.0894,0.0325 -0.13453,0.0431 -0.19161,0.0452 -0.38777,0.0611 -0.58425,0.0676 -0.12742,-2.4e-4 -0.25493,0.004 -0.38225,0 -0.16647,-0.006 -0.33249,-0.0214 -0.49867,-0.0329 -0.18507,-0.013 -0.37031,-0.0238 -0.55508,-0.0404 -0.72476,-0.0651 -1.44505,-0.17044 -2.1615,-0.29684 -0.27505,-0.0521 -0.55071,-0.10109 -0.82515,-0.15631 -0.55017,-0.1107 -1.17861,-0.25329 -1.72517,-0.37788 -0.48962,-0.11163 -1.25336,-0.28763 -1.74005,-0.40915 -0.28823,-0.0719 -0.57507,-0.14936 -0.8626,-0.22405 -1.09171,-0.3094 -0.51168,-0.13668 -1.52508,-0.45418 -0.25224,-0.079 -0.57364,-0.17336 -0.82811,-0.2694 -0.0312,-0.0116 -0.26125,-0.11317 -0.32577,-0.1415 0,0 3.12682,2.40749 3.12682,2.40749 z" />
        <g
           id="g4227-0-2-2"
           transform="translate(-88.318636,-51.787053)">
          <path
             style="fill:#05df72;fill-opacity:1;stroke:#000000;stroke-width:0.670893;stroke-linejoin:round"
             id="path3044-7-7-2-6-0-7-0-3-0"
             d="m 151.09688,189.23421 c -0.0497,0.22117 -0.16298,0.41958 -0.2098,0.64267 -0.0428,0.20373 -0.0436,0.41542 -0.0942,0.61735 -0.12683,0.50618 -0.32863,0.90043 -0.54042,1.37465 -0.10934,0.22407 -0.21889,0.44807 -0.32802,0.67225 -0.26123,0.53665 -0.35588,0.71673 -0.58736,1.25928 -0.15447,0.36203 -0.31197,0.76851 -0.44332,1.14065 -0.0596,0.16875 -0.11344,0.33949 -0.17015,0.50924 -0.0489,0.30814 -0.16658,0.59947 -0.23184,0.90345 -0.0691,0.32197 -0.10497,0.67413 -0.0572,1.00237 0.012,0.0824 0.0385,0.16196 0.0577,0.24294 0.0352,0.0692 0.0615,0.14362 0.10556,0.20746 0.0452,0.0654 0.0915,0.1365 0.1599,0.17698 1.27072,0.75153 2.17249,1.81743 3.53826,1.88101 0.0967,0.004 0.19387,0.009 0.29026,0 0.10922,-0.01 0.21625,-0.0363 0.32438,-0.0545 0.11762,-0.019 0.23859,-0.0235 0.35288,-0.0573 0.12514,-0.037 0.24302,-0.0959 0.36019,-0.15335 0.1291,-0.0633 0.25686,-0.13044 0.37766,-0.20844 0.42855,-0.2767 0.79308,-0.6422 1.1616,-0.99066 0.42452,-0.41568 0.32801,-0.31736 0.73283,-0.72826 0.10226,-0.10377 0.21048,-0.20212 0.30584,-0.31229 0.0863,-0.0997 0.15812,-0.21108 0.23799,-0.31599 0.0671,-0.0881 0.1352,-0.17534 0.2028,-0.263 0,0 -2.95669,-1.69248 -2.95669,-1.69248 v 0 c -0.0316,0.0998 -0.0554,0.20243 -0.0948,0.29945 -0.0456,0.1125 -0.10334,0.21977 -0.15949,0.3274 -0.0625,0.11985 -0.12333,0.24111 -0.19643,0.35486 -0.23928,0.37227 -0.3117,0.41608 -0.6226,0.74279 -0.13787,0.10985 -0.26962,0.22788 -0.41362,0.32962 -0.37898,0.2677 -0.81682,0.49921 -1.26981,0.6119 -0.24639,0.0613 -0.48846,0.0709 -0.73928,0.0904 -0.27003,-0.0259 -0.41433,-0.0254 -0.66943,-0.10157 -0.092,-0.0275 -0.35038,-0.15468 -0.26835,-0.10478 0.93585,0.56944 1.89307,1.10308 2.83321,1.66542 0.0634,0.0379 -0.13961,-0.0515 -0.20174,-0.0914 -0.0654,-0.0419 -0.11795,-0.10104 -0.17692,-0.15158 -0.0524,-0.0705 -0.11407,-0.13494 -0.15706,-0.21151 -0.17238,-0.30705 -0.22252,-0.67222 -0.24011,-1.01748 -0.008,-0.15216 -0.0126,-0.30488 -0.005,-0.45701 0.009,-0.16889 0.0356,-0.33632 0.0534,-0.50448 0.027,-0.18042 0.048,-0.36188 0.081,-0.54129 0.0765,-0.41592 0.17303,-0.78973 0.29522,-1.19525 0.12501,-0.4149 0.29315,-0.9075 0.46268,-1.30498 0.0969,-0.22709 0.20985,-0.44694 0.31477,-0.67043 0.27436,-0.46143 0.43856,-0.81179 0.83122,-1.18676 0.14478,-0.13827 0.32337,-0.23617 0.48803,-0.35002 0.16189,-0.11194 0.27527,-0.19725 0.46051,-0.24789 0.0418,-0.0114 0.0862,-0.008 0.12935,-0.0124 0,0 -3.32383,-2.12821 -3.32383,-2.12821 z" />
          <path
             style="fill:#05dff4;fill-opacity:1;stroke:#000000;stroke-width:0.670893;stroke-linejoin:round"
             id="path3050-2-6-6-0-4-7-9-5-3"
             d="m 147.13066,193.3793 c 0.2057,-0.0481 0.41472,-0.0351 0.62404,-0.0286 0.61879,0.019 0.31354,-8e-5 1.03693,0.0874 0.24306,0.0414 0.48673,0.0793 0.72919,0.12409 0.61613,0.11367 1.03288,0.20751 1.64823,0.3406 0.85969,0.18592 1.71897,0.37224 2.58043,0.54986 1.02479,0.19571 2.04858,0.39756 3.07445,0.58756 1.17446,0.21748 0.0562,-0.003 1.13193,0.21322 0.33735,0.0669 0.66915,0.15788 1.00584,0.22765 0.13861,0.0287 0.24207,0.0445 0.3812,0.0341 0.0726,-0.0296 0.11705,-0.0879 0.16324,-0.14745 0,0 -3.41209,-2.03152 -3.41209,-2.03152 v 0 c 0.0189,-0.0244 0.0393,-0.0474 0.058,-0.0719 -0.0418,0.0212 -0.0894,0.0325 -0.13453,0.0431 -0.19161,0.0452 -0.38777,0.0611 -0.58425,0.0676 -0.12742,-2.4e-4 -0.25493,0.004 -0.38225,0 -0.16647,-0.006 -0.33249,-0.0214 -0.49867,-0.0329 -0.18507,-0.013 -0.37031,-0.0238 -0.55508,-0.0404 -0.72476,-0.0651 -1.44505,-0.17044 -2.1615,-0.29684 -0.27505,-0.0521 -0.55071,-0.10109 -0.82515,-0.15631 -0.55017,-0.1107 -1.17861,-0.25329 -1.72517,-0.37788 -0.48962,-0.11163 -1.25336,-0.28763 -1.74005,-0.40915 -0.28823,-0.0719 -0.57507,-0.14936 -0.8626,-0.22405 -1.09171,-0.3094 -0.51168,-0.13668 -1.52508,-0.45418 -0.25224,-0.079 -0.57364,-0.17336 -0.82811,-0.2694 -0.0312,-0.0116 -0.26125,-0.11317 -0.32577,-0.1415 0,0 3.12682,2.40749 3.12682,2.40749 z" />
        </g>
      </g>
    </g>
  </g>
</svg>
